<svg width="1971" height="1532" viewBox="0 0 1971 1532" fill="none" xmlns="http://www.w3.org/2000/svg">
<path d="M1483.9 659.335C1392.75 600.23 1267.42 564 1129.5 564C991.58 564 866.253 600.23 775.102 659.335C684.049 718.377 626 801.12 626 894C626 930.53 635.032 965.6 651.558 998.284L661.402 995.615C644.926 963.69 636 929.521 636 894C636 717.269 856.947 574 1129.5 574C1402.05 574 1623 717.269 1623 894C1623 929.464 1614.1 963.581 1597.68 995.462C1597.4 995.383 1597.12 995.307 1596.84 995.229L1597.6 995.62L1607.45 998.251C1623.97 965.576 1633 930.518 1633 894C1633 801.12 1574.95 718.377 1483.9 659.335Z" fill="black"/>
<path fill-rule="evenodd" clip-rule="evenodd" d="M696.269 986.592C1005.31 909.506 1305.77 912.722 1597.68 995.462C1614.1 963.581 1623 929.465 1623 894C1623 717.269 1402.05 574 1129.5 574C856.95 574 636 717.269 636 894C636 929.522 644.926 963.692 661.403 995.618C672.81 992.494 684.446 989.49 696.269 986.592Z" fill="#E06530"/>
<path d="M1327.17 842.9C1337.89 859.439 1345.16 904.773 1345.16 904.773L1345.05 919.755C1341.71 922.362 1334.2 935.126 1334.2 935.126L1331.96 942.406C1362.82 946.025 1393.59 950.512 1424.27 955.852C1424.17 945.097 1423.41 923.802 1423.41 923.802L1423.38 923.847L1424.44 921.566C1427.64 915.211 1424.44 910.73 1424.44 910.73L1426.55 821.065L1431.32 813.335L1446.65 792.143C1446.65 792.143 1456.79 775.513 1457.34 770.951C1457.9 766.388 1455.69 760.613 1455.69 760.613C1455.69 760.613 1448.89 749.234 1446.34 741.938C1443.8 734.642 1439.31 732.297 1439.31 732.297C1439.99 729.301 1436.63 726.54 1436.63 726.54C1430.07 725.209 1426.35 715.794 1426.35 715.794C1424.67 715.767 1424.14 715.079 1424.14 715.079L1417.91 707.593C1417.91 707.593 1410.92 695.191 1406.31 696.042C1401.71 696.893 1398.13 699.446 1398.13 699.446C1398.13 699.446 1397.19 698.694 1394.8 698.595C1392.41 698.495 1391.41 703.266 1391.41 703.266C1387.99 703.474 1388.15 705.592 1387.81 705.737C1387.47 705.882 1390.35 710.716 1390.35 710.716C1390.05 715.36 1394.1 712.083 1394.1 712.083C1394.1 712.083 1400.34 719.026 1402.4 719.786C1404.47 720.547 1410.4 719.759 1410.88 719.633C1411.36 719.506 1414.68 725.299 1414.68 725.299C1411.35 726.512 1413.33 728.857 1413.33 728.857L1418.81 735.891L1419.45 738.498L1423.42 746.573C1423.26 753.262 1427.78 758.296 1427.78 758.296L1427.69 771.539C1428.65 772.77 1421.32 778.7 1421.32 778.7C1421.32 778.7 1417.51 780.393 1416.38 779.677C1415.85 779.342 1414.99 779.967 1414.23 780.724C1414.28 780.272 1413.92 780.171 1412.99 780.764C1410.19 782.563 1403.38 757.281 1401.39 749.628L1401.75 748.157C1401.75 748.157 1397.33 737.167 1393.28 732.867C1389.22 728.576 1374.31 728.45 1371.88 727.861C1369.44 727.273 1366.68 729.744 1364.32 730.767C1361.96 731.781 1359.75 735.909 1359.75 735.909C1359.75 735.909 1362.63 735.33 1361.66 735.674C1360.68 736.017 1359.83 737.864 1359.83 737.864L1360.98 737.759C1360.85 737.959 1360.71 738.183 1360.54 738.444C1358.04 742.345 1358.77 746.355 1358.77 746.355L1359.53 744.952C1359.77 748.99 1361.38 749.506 1359.65 758.042C1357.92 766.579 1357.92 779.732 1357.92 779.732C1359.76 782.176 1361.28 786.445 1361.95 788.535C1361.93 788.538 1361.91 788.546 1361.89 788.549C1359.86 788.814 1360.46 789.378 1362.34 789.989C1362.4 791.134 1362.64 796.463 1361.85 796.406C1360.95 796.343 1352.47 801.096 1352.47 801.096C1341.19 798.316 1338.76 802.218 1332.92 802.091C1327.09 801.965 1323.59 805.739 1323.59 805.739C1318.07 807.17 1294.63 812.556 1294.63 812.556L1246.96 805.26L1236 834.961C1236 834.961 1284.5 838.346 1300.35 839.125C1316.2 839.903 1327.17 842.9 1327.17 842.9Z" fill="#01090F"/>
<path opacity="0.07" d="M766.7 1041.6C771 1044.5 775.5 1047.2 779 1051C774.6 1048.3 770.6 1044.9 766.7 1041.6Z" fill="black"/>
<path d="M1416.5 839.986C1416.5 839.986 1421.9 844.279 1424.26 844.433C1426.61 844.586 1439.2 850.957 1454.64 853.127C1454.64 853.127 1455.34 858.908 1454.89 863.02C1454.89 863.02 1456.72 865.621 1459.75 866.027C1462.78 866.433 1463.89 865.69 1464.47 867.854C1465.06 870.018 1465.56 872.283 1463.27 877.545C1460.98 882.808 1461 894.905 1461 894.905L1461.4 899.497C1461.4 899.497 1456.63 914.088 1456.69 914.443C1456.75 914.798 1453.88 921.734 1455 923.266C1456.12 924.799 1468.55 930.742 1468.55 930.742L1468.94 931.372C1468.94 931.372 1467.81 932.534 1467.9 932.812C1467.98 933.089 1465.73 934.068 1465.35 935.549C1464.97 936.997 1449.66 953.648 1448.71 960.279C1475.82 965.409 1502.85 971.222 1529.81 977.698C1530.75 966.463 1530.66 957.407 1528.01 957.072C1528.01 957.072 1530.94 954.036 1527.25 948.534C1527.25 948.534 1537.48 951.97 1539.23 949.785C1540.97 947.6 1542.75 942.218 1542.13 941.643C1541.51 941.069 1545.43 928.778 1545.03 927.389C1544.62 926.001 1548.26 915.643 1548.42 915.567C1548.57 915.491 1552.61 910.273 1553.05 902.999C1553.05 902.999 1558.02 891.924 1559.24 893.912C1560.46 895.9 1565.51 899.515 1567.21 897.476C1568.9 895.437 1573.04 889.793 1573.04 889.793C1573.04 889.793 1592.01 900.888 1594.63 901.767C1597.24 902.647 1602.52 905.296 1608.04 902.206C1613.57 899.116 1607.74 864.527 1607.74 864.527L1602.52 836.591C1602.52 836.591 1601.22 833.918 1601.38 833.402C1601.54 832.887 1600.91 831.294 1600.95 831.178C1600.98 831.062 1601.6 817.48 1601.46 817.521C1601.32 817.562 1602.15 814.313 1600.88 813.813C1600.88 813.813 1600.21 811.454 1598.75 811.314C1597.29 811.174 1596.13 811.473 1596.13 811.473C1596.13 811.473 1588.38 809.898 1585.4 809.338C1582.42 808.777 1585.16 813.433 1585.16 813.433C1585.16 813.433 1583.15 810.732 1580.93 813.909C1580.93 813.909 1580 816.061 1581.58 818.536C1581.58 818.536 1582.72 819.445 1582.19 821.256C1581.66 823.066 1588.04 831.948 1588.04 831.948C1588.04 831.948 1590.97 834.261 1591.54 838.995C1592.11 843.729 1596 855.947 1594.77 860.659L1594.05 880.825L1584.63 874.4C1584.63 874.4 1583.51 871.265 1581.13 870.684C1578.74 870.103 1578.84 867.519 1578.06 867.316C1577.29 867.113 1576.43 866.759 1576.21 866.142C1575.98 865.525 1573.32 861.527 1572.67 861.322C1572.02 861.117 1566.78 856.516 1566.58 856.494C1566.38 856.473 1567.91 851.858 1565.59 850.158C1563.26 848.459 1557.41 848.209 1557.41 848.209C1557.41 848.209 1556.73 839.457 1557.02 838.706C1557.31 837.955 1563.97 829.663 1563.28 828.826C1562.58 827.99 1561.63 822.468 1561.17 822.152C1560.71 821.836 1559.85 815.835 1560.59 814.385C1561.33 812.935 1562.78 798.534 1559.18 794.125C1559.18 794.125 1556.41 782.786 1546.91 781.588C1546.91 781.588 1537.68 776.708 1528.73 783.891C1519.79 791.075 1510.5 811.625 1510.5 811.625C1510.5 811.625 1509.4 814.591 1507.6 814.079C1507.6 814.079 1506.14 814.067 1506.75 815.158C1507.36 816.249 1507.17 814.727 1504.26 817.352C1501.36 819.976 1501.52 819.465 1502.02 822.149C1502.53 824.834 1503.91 826.482 1503.82 826.788C1503.72 827.094 1503.69 828.264 1501.82 828.94C1499.95 829.616 1497.56 832.121 1495.68 831.67C1493.8 831.218 1486.07 827.349 1485.18 827.514C1484.28 827.679 1480.6 829.343 1478.65 831.804C1476.7 834.265 1453.89 832.762 1453.89 832.762L1436.89 829.478L1436.9 829.472C1436.9 829.472 1445.05 814.146 1445.44 814.497C1445.84 814.847 1447.41 814.303 1448.22 812.112C1448.72 810.752 1448.7 810.55 1448.67 810.53C1448.68 810.523 1448.7 810.508 1448.73 810.477C1448.98 810.219 1454.77 802.267 1454.95 802.156C1455.12 802.045 1463.16 792.667 1465.29 792.048C1465.29 792.048 1467.85 789.906 1469.97 789.928C1472.1 789.951 1477.85 788.705 1480.83 787.427C1483.82 786.149 1488.24 783.949 1487.47 782.579C1486.69 781.209 1487.52 781.079 1485.15 779.603C1485.15 779.603 1487.66 777.892 1487.08 776.505C1486.5 775.118 1481.65 771.393 1481.66 771.09C1481.67 770.786 1479.05 769.48 1478.77 769.59C1478.48 769.7 1476.97 768.07 1476.39 768.028C1475.82 767.986 1474.02 768.092 1473.89 768.418C1473.76 768.744 1471.18 768.801 1471.13 769.065C1471.08 769.33 1469.07 770.244 1469.04 770.431C1469.02 770.618 1463.31 776.964 1463.31 776.964L1459.6 780.964C1459.6 780.964 1454.21 785.479 1454.24 785.654C1454.27 785.83 1437.59 803.009 1437.59 803.009C1437.59 803.009 1436.89 801.873 1434.69 804.466C1434.69 804.466 1433.76 805.888 1434.13 806.478C1434.5 807.068 1418.38 825.77 1418.38 826.234C1418.38 826.698 1413.75 834.569 1413.75 834.569C1413.75 834.569 1412.45 837.843 1416.5 839.986Z" fill="#01090F"/>
<path d="M1013.94 685.244C1019.11 687.182 1015.45 696.68 1015.45 696.68C1015.45 696.68 1027.66 752.7 1060.77 775.527C1060.77 775.527 1085.2 821.184 1087.11 820.915C1089.01 820.647 1091.68 877.187 1086.73 881.094C1081.78 885.001 1073.11 921.205 1073.11 921.205L1076.46 924.904L1076.42 924.895C1076.42 924.895 1075.5 927.83 1074.19 932.143C1091.3 931.52 1108.38 931.156 1125.43 931.046C1126.05 930.999 1126.7 930.99 1127.38 931.038C1143.39 930.953 1159.37 931.095 1175.33 931.462C1174.47 928.01 1173.78 925.801 1173.32 925.412C1174.77 924.916 1177.99 923.086 1176.08 918.846C1173.28 912.63 1159.76 865.94 1161.22 857.503C1162.68 849.066 1163.9 826.293 1177.76 809.935C1191.63 793.577 1204.04 766.136 1204.04 766.136L1235.1 722.796C1235.1 722.796 1247.85 700.654 1245.44 693.39C1245.43 693.345 1245.42 693.291 1245.4 693.246C1245.4 693.246 1241.62 692.207 1243.29 688.774C1244.96 685.34 1250.36 669.701 1249.61 668.102C1248.86 666.504 1247.69 656.909 1247.69 656.909C1247.69 656.909 1243.6 656.346 1241.43 656.837C1240.6 657.024 1240.04 657.368 1240.1 657.947C1240.28 660.062 1240.89 673.306 1239.19 673.517C1239.19 673.517 1236.61 676.876 1226.54 669.799C1216.48 662.723 1236.48 685.343 1235.64 688.219C1234.79 691.095 1190.06 741.011 1190.06 741.011C1190.06 741.011 1153.72 781.165 1152.55 780.914C1151.38 780.663 1147.17 780.564 1147.46 776.702C1147.75 772.849 1154.67 768.872 1152.96 753.238C1151.26 737.605 1140.16 727.677 1133.22 730.125C1133.22 730.125 1119.68 728.749 1117.24 738.108C1117.24 738.108 1109.72 753.015 1110.97 763.65C1112.23 774.284 1115.05 777.096 1115.05 777.096C1115.05 777.096 1107.4 780.181 1104.58 778.8C1101.76 777.419 1079.93 751.29 1078.14 751.801L1048.14 698.482C1048.14 698.482 1044.07 691.029 1037.76 688.459C1031.45 685.889 1029.8 683.582 1026.97 685.786C1024.14 687.991 1025.89 675.602 1025.89 675.602L1029.19 669.279C1029.19 669.279 1030.77 665.267 1026.28 667.99C1021.78 670.712 1019.17 676.172 1019.17 676.172C1019.17 676.172 1014.76 677.118 1013.71 671.758C1012.67 666.398 1015 663.379 1015 663.379C1015 663.379 1016.05 660.617 1013.32 662.331C1010.59 664.044 1010.49 665.123 1010.5 665.838C1010.52 666.553 1010.16 659.878 1008.73 659.903C1007.29 659.928 1007.12 656.472 1006.44 659.11C1005.76 661.747 1005.91 662.822 1006.03 663.418C1006.16 664.013 1005.7 665.098 1005.32 663.548C1004.94 661.997 1006.02 662.703 1004.93 662.006C1003.84 661.31 1003.19 657.981 1002.88 660.847C1002.58 663.713 1008.77 683.306 1013.94 685.244Z" fill="#01090F"/>
<path d="M802.374 850.672C802.374 850.672 827.198 883.558 837.129 887.114L842.986 889.656C842.986 889.656 841.841 895.241 842.22 898.033C842.22 898.033 837.889 902.861 838.655 919.365C839.142 929.963 839.896 945.208 841.282 956.216C852.107 954.383 862.922 952.65 873.725 951.018C876.572 935.882 880.149 922.908 883.837 926.349C886.58 928.909 889.169 937.854 891.381 948.434C901.971 946.939 912.551 945.537 923.12 944.234C924.872 932.94 926.348 923.106 925.852 922.542C924.661 921.188 925.086 912.637 925.086 912.637L920.755 888.34C920.755 888.34 952.15 857.695 951.816 856.892C951.481 856.09 964.038 844.747 960.305 835.266C956.572 825.785 946.049 805.808 916.68 784.137L910.231 782.442C910.231 782.442 913.964 775.503 912.098 773.808C910.231 772.114 906.833 764.834 906.325 764.327C905.816 763.82 905.134 729.451 904.458 728.944C903.782 728.437 901.658 717.223 893.639 714.937C885.62 712.652 867.032 713.538 863.473 729.413C863.473 729.413 855.324 751.63 855.962 763.313C855.962 763.313 851.051 779.309 855.923 781.216C855.923 781.216 844.499 782.487 833.171 794.042C821.837 805.596 808.598 823.243 805.161 823.878H805.174C801.737 824.514 790.409 842.038 802.374 850.672ZM919.146 816.22C919.146 816.22 940.7 836.537 941.125 842.038C941.55 847.54 924.153 870.565 922.454 871.239C920.755 871.92 914.306 866.586 914.306 866.586C914.306 866.586 913.205 821.638 919.146 816.22ZM821.901 840.645C825.847 832.14 841.95 820.649 841.95 820.649C851.817 822.113 853.407 868.582 851.881 868.075C850.349 867.561 842.459 873.595 842.459 873.595C842.459 873.595 841.255 873.653 830.558 863.498C819.868 853.343 817.956 849.151 821.901 840.645Z" fill="#01090F"/>
<path d="M1285.09 754.933C1285.23 754.905 1285.1 754.808 1284.85 754.687C1284.92 754.852 1285 754.95 1285.09 754.933Z" fill="#01090F"/>
<path d="M1244.39 765.729C1244.5 765.652 1244.59 765.486 1244.68 765.255C1244.2 765.736 1243.93 766.042 1244.39 765.729Z" fill="#01090F"/>
<path d="M1288.48 743.363C1288.55 743.366 1288.54 743.254 1288.47 743.076C1288.42 743.252 1288.41 743.361 1288.48 743.363Z" fill="#01090F"/>
<path d="M1283.91 756.688C1284.09 756.73 1283.92 756.586 1283.6 756.394C1283.7 756.545 1283.8 756.663 1283.91 756.688Z" fill="#01090F"/>
<path d="M1193.91 671.505C1194.07 671.676 1195.99 677.239 1195.82 679.636C1195.66 682.032 1197.65 687.563 1197.89 687.381C1198.13 687.199 1197.69 694.381 1197.36 694.813C1197.04 695.245 1196.36 700.734 1195.33 701.206C1194.29 701.678 1194.39 707.594 1194 707.884C1193.61 708.174 1189.06 735.838 1191.82 738.775C1191.82 738.775 1189.85 748.055 1194.12 758.523C1198.39 768.979 1223.37 793.711 1222.68 795.484C1222.68 795.484 1226.75 798.5 1226.26 814.577C1225.78 830.655 1233.11 860.738 1231.88 863.59C1230.64 866.442 1233.81 879.29 1231.2 887.48C1231.2 887.48 1232.82 892.604 1233.58 891.706C1234.35 890.809 1232.05 899.071 1231.28 899.228C1230.51 899.385 1221.2 920.153 1221.2 920.153C1221.2 920.153 1218.77 926.115 1217.7 932.972C1247.14 934.393 1276.5 936.586 1305.78 939.552C1305.98 936.743 1306.1 934.256 1305.88 934.183C1305.36 934.013 1306.77 917.986 1306.36 917.903C1305.95 917.82 1306.17 902.789 1306.79 902.166C1307.41 901.544 1310.44 881.801 1310.09 881.729C1309.73 881.657 1307.68 866.984 1307.68 866.984C1307.68 866.984 1308.95 845.59 1308.6 845.518C1308.24 845.445 1307.91 827.151 1309.06 825.74C1309.06 825.74 1310.62 809.615 1310.98 809.005C1311.35 808.396 1313.83 792.587 1314.44 792.026C1315.04 791.466 1332.06 776.148 1331.43 775.613C1330.8 775.078 1340.39 770.858 1342.33 766.181C1344.27 761.504 1351.63 759.168 1353.44 754.465C1355.26 749.763 1355.06 753.15 1358.02 743.47C1358.02 743.47 1358.26 734.013 1358.52 733.523C1358.79 733.032 1358.76 723.113 1358.76 723.113C1358.76 723.113 1358.29 712.921 1357.85 712.877C1357.4 712.833 1356.26 705.385 1355.72 705.404C1355.18 705.424 1356.11 699.822 1355.85 699.722C1355.58 699.622 1353.36 692.222 1353.51 692.077C1353.66 691.931 1353.32 688.564 1353.32 688.564C1353.32 688.564 1355.49 678.457 1355.14 678.201C1354.78 677.944 1354.58 672.285 1354.58 671.87C1354.58 671.454 1357.46 665.971 1357.19 665.684C1356.91 665.397 1357.3 664.932 1357.01 664.734C1356.72 664.536 1355.72 664.055 1355.72 664.055C1355.72 664.055 1355.29 663.737 1355.05 663.919C1354.81 664.101 1353.88 664.826 1353.82 664.943C1353.76 665.06 1352.06 667.329 1352.03 667.868C1352 668.408 1351.92 668.576 1351.63 668.609C1351.34 668.642 1350.94 668.607 1350.94 668.607L1350.48 668.422L1350.74 666.598C1350.74 666.598 1351.46 665.285 1351.55 665.026C1351.63 664.767 1351.95 663.834 1351.99 663.657C1352.03 663.48 1352.12 662.223 1352.12 662.223C1352.12 662.223 1352.27 661.478 1352.11 661.445L1351.2 661.261C1351.2 661.261 1350.12 661.364 1349.94 661.42C1349.76 661.477 1349.09 661.792 1348.96 661.998C1348.84 662.203 1348.15 662.977 1348.04 663.315C1347.94 663.654 1347.7 663.977 1347.63 664.331L1347.35 665.689C1347.31 665.91 1347.17 666.427 1347 666.854C1346.83 667.281 1346.73 667.575 1346.73 667.575L1346.05 668.12L1345.46 667.955C1345.46 667.955 1345.19 667.308 1345.28 667.049C1345.37 666.79 1345.95 665.727 1345.95 665.727C1345.95 665.727 1345.95 665.542 1346.08 665.114C1346.2 664.687 1346.5 663.834 1346.5 663.834C1346.5 663.834 1346.56 663.392 1346.67 663.185C1346.79 662.978 1346.98 662.657 1347.07 662.444C1347.16 662.231 1347.27 661.893 1347.34 661.722C1347.41 661.552 1347.66 660.55 1347.66 660.55C1347.66 660.55 1347.26 657.678 1344.04 659.814C1340.82 661.948 1341.35 667.987 1341.35 667.987C1341.35 667.987 1340.16 668.021 1339.82 667.675C1339.48 667.33 1341.46 656.546 1341.46 656.546C1341.46 656.546 1340.58 653.853 1338.16 655.872C1335.73 657.892 1334.7 674.68 1334.7 674.68C1334.7 674.68 1330.44 666.968 1326.46 668.559C1326.46 668.559 1324.99 672.89 1329.82 676.68C1329.82 676.68 1333.62 687.624 1333.94 687.587C1334.26 687.551 1339.14 693.81 1339.4 693.77C1339.65 693.73 1340.14 694.558 1339.49 697.354C1338.84 700.141 1338.23 700.045 1338.46 700.259C1338.7 700.473 1339.78 706.042 1339.31 706.529C1338.85 707.015 1337.19 712.093 1337.45 712.488C1337.72 712.883 1337.5 727.092 1335.53 730.119C1335.53 730.119 1334.78 738.493 1332.69 739.066L1325.23 748.08C1325.23 748.08 1322.51 753.374 1322.17 753.488C1321.82 753.602 1313.76 755.704 1313.76 755.704C1313.76 755.704 1312.86 755.705 1312.29 756.504C1311.72 757.302 1309.14 759.882 1308.27 759.705C1307.4 759.529 1304.34 758.904 1303.88 759.542C1303.43 760.179 1296.99 763.987 1296.52 763.892C1296.05 763.796 1291.73 765.291 1291.73 765.291C1291.73 765.291 1287.59 768.283 1288.05 768.838C1288.51 769.394 1275.23 766.96 1275.23 766.96L1276.78 759.782L1277.5 757.739C1277.5 757.739 1277.42 763.544 1276.89 764.01C1276.37 764.475 1278.29 764.405 1278.55 762.84C1278.8 761.275 1279.12 759.096 1279.1 758.472C1279.08 757.849 1280.36 755.81 1280.35 756.167C1280.33 756.524 1280.45 758.378 1280.38 758.798C1280.32 759.219 1281.36 756.623 1281.49 755.872C1281.57 755.361 1282.92 755.985 1283.6 756.394C1283.15 755.724 1282.76 754.105 1282.74 754.002C1282.71 753.911 1284.2 754.379 1284.85 754.687C1284.47 753.877 1284.21 751.303 1283.83 751.112C1283.38 750.881 1291.9 748.983 1290.49 748.632C1289.08 748.281 1285 748.403 1283.9 747.772C1282.8 747.142 1284.14 740.901 1284.69 742.659C1285.26 744.418 1286.24 744.414 1286.24 744.414C1286.24 744.414 1286.97 741.414 1287.01 740.265C1287.36 741.002 1288.24 742.46 1288.47 743.076C1288.73 742.108 1290.16 738.829 1286.66 736.556C1286.66 736.556 1293.85 736.308 1292.19 735.076C1290.54 733.844 1289.48 733.904 1289.25 733.857C1289.02 733.81 1293.72 731.82 1293.13 731.701C1292.55 731.582 1285.18 729.057 1285.64 727.433C1286.1 725.808 1287.98 725.923 1288.42 725.255C1288.86 724.587 1289.96 720.09 1289.49 719.654C1289.03 719.217 1289.07 719.91 1290.85 718.424C1292.63 716.939 1288.98 717.628 1288.98 717.628C1288.98 717.628 1289.12 712.104 1285.51 710.824C1285.51 710.824 1287.72 710.858 1287.5 710.685C1287.29 710.512 1286.61 707.556 1284.14 706.988C1281.66 706.421 1277.04 706.164 1276.85 706.531C1276.65 706.898 1275.5 706.534 1275.5 706.534C1275.5 706.534 1279.11 705.42 1283.97 705.994C1288.83 706.567 1276.79 702.002 1273.5 705.444C1270.22 708.886 1273.33 704.17 1273.33 704.17C1273.33 704.17 1282.76 702.524 1282.34 702.171C1281.93 701.818 1279.53 700.573 1277.12 700.906C1274.72 701.239 1273.17 701.606 1272.25 702.179C1271.34 702.751 1271.05 702.959 1271.05 702.959C1271.05 702.959 1268.11 697.151 1265.16 696.209C1265.16 696.209 1265.89 703.212 1266.57 703.211C1267.24 703.209 1265.39 703.249 1265.39 703.249C1265.39 703.249 1264.63 703.371 1264.55 702.874C1264.46 702.376 1265.32 698.163 1258.88 696.593C1258.78 696.573 1258.68 696.554 1258.58 696.534C1258.58 696.534 1259.19 699.747 1260.07 700.682C1257.63 700.271 1249.11 699.853 1247.19 702.363C1247.19 702.363 1248.42 704.193 1250.56 704.214C1252.71 704.235 1240.63 710.137 1239.32 714.12C1238.01 718.103 1239.11 715.176 1239.11 715.176C1239.11 715.176 1242.16 713.469 1242.2 713.274C1242.24 713.079 1243.59 711.912 1242.09 714.415C1240.59 716.919 1236.74 718.944 1237.03 720.241C1237.32 721.538 1237.66 721.394 1237.48 721.977C1237.31 722.561 1236.36 726.886 1235.37 728.125C1234.38 729.365 1234.48 730.688 1232.75 731.36C1231.01 732.033 1229.42 731.367 1229.33 732.107C1229.25 732.847 1231.4 733.415 1231.64 733.741C1231.88 734.066 1231.16 741.245 1231.79 741.448C1232.43 741.651 1233.69 739.986 1233.69 739.986C1233.69 739.986 1235.37 743.819 1235.64 743.126C1235.85 742.591 1235.57 739.714 1235.28 738.488C1235.95 739.487 1237.56 741.629 1236.89 743.308C1236.02 745.522 1235.71 748.822 1235.29 749.356C1234.88 749.891 1238.16 747.335 1238.16 747.058C1238.16 746.781 1237.91 753.177 1238.48 753.017C1239.06 752.857 1238.94 757.423 1239.2 758.576C1239.46 759.729 1241.32 755.997 1241.31 755.718C1241.31 755.439 1242.02 753.737 1241.89 756.519C1241.76 759.3 1241.62 759.687 1241.62 759.687L1244.94 755.153C1244.94 755.153 1245.42 763.118 1244.68 765.255C1245.41 764.522 1246.65 763.38 1246.65 763.38C1246.65 763.38 1244.75 766.967 1246.12 768.687C1247.49 770.406 1247.99 767.699 1248.23 767.407C1248.47 767.114 1250.15 771.844 1249.98 772.419C1249.81 772.993 1248.89 773.564 1247.96 773.587C1247.03 773.611 1238.79 770.012 1238.79 770.012C1238.79 770.012 1233.44 766.347 1232.61 766.63C1231.78 766.913 1228.29 764.699 1227.66 764.755C1227.03 764.812 1220.34 756.412 1220.46 755.429C1220.58 754.445 1213.7 745.333 1213.94 744.329C1214.18 743.325 1211.52 737.074 1211.79 736.167C1212.05 735.261 1210.77 722.657 1211.05 721.847C1211.34 721.037 1209.98 715.06 1210.34 714.441C1210.71 713.823 1210.88 704.501 1211.28 704.22C1211.67 703.939 1208.98 699.781 1209.48 698.922C1209.98 698.063 1209.89 690.645 1210.08 690.36C1210.26 690.075 1212.75 683.828 1213.14 683.583C1213.52 683.337 1216.18 679.314 1216.9 673.937C1216.9 673.937 1220.72 669.874 1221.03 669.983C1221.34 670.093 1222.9 666.659 1218.85 667.618C1214.8 668.578 1213.03 671.414 1213.03 671.414C1213.03 671.414 1210.15 660.415 1205.83 661.266C1205.83 661.266 1203.84 660.176 1202.76 661.832C1202.76 661.832 1196.55 660.116 1196.43 660.498C1196.3 660.879 1195.66 661.486 1195.64 662.396C1195.62 663.307 1195.27 663.782 1195.1 663.794C1194.93 663.805 1192.93 664.22 1192.7 664.948C1192.47 665.677 1192.38 665.705 1191.97 666.121C1191.56 666.537 1188.92 667.562 1188.88 667.562C1188.83 667.561 1187.81 669.774 1188.38 669.983C1188.96 670.193 1193.75 671.334 1193.91 671.505Z" fill="#01090F"/>
<path d="M660.609 957.339C660.609 957.339 665.615 955.737 666.2 955.152C666.785 954.566 667.983 956.769 666.624 956.937C665.266 957.105 660.163 958.623 660.163 958.623C660.163 958.623 658.703 962.137 661.971 963.968C665.239 965.8 670.59 964.083 670.59 964.083C670.59 964.083 670.756 965.151 670.619 965.787C670.482 966.422 670.464 967.458 669.977 968.164C669.491 968.869 669.033 969.446 668.858 969.54C668.683 969.633 666.325 971.867 667.69 972.044C669.054 972.221 669.71 971.994 669.872 971.846C670.034 971.699 670.931 970.248 670.931 970.248L671.932 968.472L672.474 967.263L676.079 964.316C676.079 964.316 677.769 963.435 678.151 964.489C678.533 965.542 677.72 967.931 677.729 968.066C677.739 968.202 677.345 970.879 677.357 971.051C677.369 971.222 676.973 973.863 679.581 972.737C682.188 971.611 682.903 968.866 682.903 968.866L683.589 965.179L683.822 963.321L685.309 949.932L701.359 916.413C701.359 916.413 705.925 907.21 705.597 906.425C705.27 905.64 710.95 889.272 710.95 889.272L716.725 869.213C716.725 869.213 720.767 860.318 721.328 860.542C721.888 860.766 728.069 877.394 726.668 883.055C725.267 888.715 716.112 910.536 716.112 910.536C716.112 910.536 711.7 924.401 712.059 925.765C712.417 927.128 712.979 951.772 714.091 952.229C715.203 952.687 716.148 961.151 716.148 961.151C716.148 961.151 717.767 974.051 722.092 975.545C726.416 977.039 725.867 978.149 726.388 977.94C726.483 977.902 726.748 978.382 727.109 979.16C751.199 973.557 775.236 968.455 799.222 963.831C798.69 962.606 798.161 961.633 797.815 961.611C796.867 961.55 790.207 938.449 790.207 938.449C790.207 938.449 785.839 916.477 786.798 915.665C787.758 914.854 787.182 897.535 788.224 897.126C789.267 896.718 822.707 932.547 833.119 938.951C843.531 945.356 852.343 940.438 852.343 940.438L867.515 936.011C867.515 936.011 877.242 932.635 868.822 931.609C860.402 930.582 851.524 930.668 851.524 930.668C851.524 930.668 836.922 928.458 837.134 927.727C837.346 926.995 812.617 901.8 811.788 898.9C810.959 895.999 796.334 879.426 796.832 878.765C797.33 878.104 792.877 869.704 792.823 865.044C792.77 860.383 789.243 842.136 789.243 842.136L788.48 838.623L788.543 836.667C788.543 836.667 791.096 838.531 791.044 838.044C790.992 837.558 790.545 836.999 790.346 836.75C790.147 836.501 792.143 837.795 792.207 837.409C792.27 837.024 790.345 833.883 790.617 833.619C790.889 833.355 795.497 835.41 795.647 835.354C795.798 835.298 795.459 834.224 795.459 834.224C795.459 834.224 799.712 834.689 797.502 833.591C795.293 832.493 794.466 831.562 794.466 831.562C794.466 831.562 800.5 830.913 799.833 829.68C799.833 829.68 800.023 825.647 799.409 825.826C798.796 826.005 798.839 829.477 795.735 828.823C792.631 828.169 793.778 820.684 793.778 820.684C793.778 820.684 798.859 819.249 794.634 818.138C790.409 817.027 790.038 816.263 790.902 815.504C791.765 814.745 794.233 815.652 794.225 815.272C794.216 814.891 793.206 814.199 792.734 814.459C792.262 814.719 795.044 812.192 794.317 811.79C793.59 811.387 792.302 810.878 792.164 811.759C792.026 812.639 790.898 814.542 790.443 813.739C789.987 812.936 789.424 810.716 789.468 810.441C789.512 810.165 789.15 808.757 789.3 808.302C789.45 807.847 790.448 802.523 789.276 801.597C788.104 800.672 788.953 806.33 786.198 807.021C783.442 807.713 780.905 806.475 780.852 805.716C780.799 804.958 775.024 798.157 774.441 794.876C773.858 791.596 773.695 780.972 773.695 780.972C773.695 780.972 767.009 763.217 765.486 763.496C765.486 763.496 757.935 748.815 754.999 747.841C754.999 747.841 746.153 743.323 744.063 744.186C744.063 744.186 732.574 744.182 730.773 746.059C728.971 747.937 724.295 747.765 721.904 757.832C719.514 767.9 718.671 784.783 718.671 784.783C718.671 784.783 716.104 795.189 709.416 796.873C709.416 796.873 709.169 799.177 709.58 799.221C709.992 799.265 710.412 799.571 710.412 799.571C710.412 799.571 708.263 801.536 708.305 802.141C708.348 802.746 702.012 810.386 701.849 811.813C701.686 813.24 696.887 812.096 697.842 813.173C698.798 814.249 700.618 814.322 700.618 814.322C700.618 814.322 698.399 815.557 697.996 816.928C697.593 818.299 694.866 843.935 696.569 845.567C698.271 847.2 699.108 849.564 699.981 848.559C700.116 848.404 700.214 848.249 700.297 848.096C699.628 853.123 697.622 868.348 697.826 868.356C698.072 868.366 689.593 889.595 689.593 889.595L684.553 912.77L674.831 939.339C674.831 939.339 672.479 946.192 671.289 947.082C670.099 947.973 665.031 951.286 665.031 951.286L659.534 954.81C659.534 954.81 656.257 956.745 660.609 957.339Z" fill="#01090F"/>
<path d="M918.159 886.049L935.883 876.653C935.883 876.653 951.1 867.564 951.055 867.12C951.016 866.734 956.266 861.736 957.331 859.706C956.683 862.307 954.344 871.534 953.382 873.032C952.259 874.779 949.643 889.218 950.05 890.756C950.458 892.295 948.502 897.473 948.104 898.207C947.706 898.94 945.216 912.446 946.294 915.596C947.291 918.514 948.282 934.335 950.932 941.031C978.81 938.036 1006.62 935.707 1034.35 934.055C1035.21 931.403 1037.16 925.003 1036.38 923.662C1035.4 921.96 1036.56 923.128 1036.56 923.128C1036.56 923.128 1034.77 876.037 1025.47 862.513C1025.47 862.513 1028.87 821.596 1034.51 820.075C1034.51 820.075 1035.59 819.179 1038.54 821.686C1041.49 824.194 1064.32 841.565 1071.84 840.126C1079.36 838.687 1084.91 837.084 1077.66 816.581L1055.19 782.562C1055.19 782.562 1053.31 762.329 1053.76 762.058C1054.22 761.786 1056.09 748.452 1051.79 747.103C1051.79 747.103 1048.48 747.465 1050.45 752.39C1050.45 752.39 1051.08 757.314 1050.81 758.029C1050.55 758.745 1049.74 759.822 1049.74 759.822C1049.74 759.822 1044.72 742.188 1044.37 742.278C1044.01 742.369 1040.52 739.327 1040.61 744.605L1043.74 753.195L1043.83 754.273L1036.67 742.278C1036.67 742.278 1033.09 739.236 1033.36 744.424C1033.36 744.424 1039.71 755.703 1039.62 756.961C1039.53 758.219 1039.71 758.754 1039.71 758.754L1031.57 746.578C1031.57 746.578 1028.07 742.55 1028.25 748.461L1035.06 760.999C1035.06 760.999 1035.15 766.91 1035.15 767.444C1035.15 767.978 1031.84 765.117 1032.11 764.493C1032.38 763.868 1029.87 757.685 1028.35 757.423C1026.83 757.16 1026.03 760.827 1027.73 765.298C1029.43 769.77 1038.56 782.933 1039.19 782.842C1039.76 782.759 1047.86 796.187 1049.34 798.17C1047.63 796.718 1036.91 789.526 1032.03 790.093C1026.66 790.718 1011.62 783.286 1012.07 781.231C1012.52 779.176 1013.95 770.757 1015.56 770.305C1016.43 770.06 1016.66 769.905 1016.69 769.812C1017.21 770.461 1019.99 773.9 1020.35 773.663C1020.75 773.4 1020.82 772.921 1020.82 772.586C1020.82 772.251 1017.46 769.3 1017.46 768.892C1017.46 768.485 1017.74 767.887 1017.74 767.887L1021.09 771.382C1021.09 771.382 1022.9 775.012 1022.23 775.881C1021.56 776.75 1019.28 778.705 1019.82 778.705C1020.35 778.705 1023.31 777.565 1023.37 776.822C1023.44 776.08 1023.65 770.648 1022.97 770.314C1022.29 769.979 1021.29 767.489 1020.55 767.154C1019.81 766.819 1024.38 758.02 1023.77 757.287C1023.21 756.601 1024.94 750.311 1024.5 749.291C1025.24 749.714 1027.59 750.841 1027.74 750.634C1027.94 750.362 1024.65 748.823 1025.66 747.882C1026.66 746.94 1027.74 748.017 1027.74 747.818C1027.74 747.619 1027.27 746.678 1026.46 745.935C1025.66 745.193 1028.74 744.858 1028.07 744.46C1027.4 744.061 1026.4 742.034 1027.33 741.4C1028.26 740.766 1033.38 740.567 1032.44 740.024C1031.49 739.481 1029.01 740.893 1029.08 738.883C1029.14 736.874 1026.93 733.515 1027.47 733.307C1028 733.099 1029.88 735.389 1029.88 733.914C1029.88 732.438 1025.11 727.468 1025.52 727.405C1025.93 727.342 1030.08 728.346 1029.01 726.998C1027.95 725.649 1027.54 724.445 1025.79 724.644C1024.04 724.843 1024.85 722.562 1024.18 722.227C1023.51 721.892 1024.04 724.037 1022.97 723.639C1021.89 723.241 1022.77 719.412 1021.75 720.082C1020.74 720.751 1020.68 722.363 1020.68 722.363C1020.68 722.363 1020.54 719.991 1020.14 720C1019.74 720.009 1016.98 721.892 1017.39 722.29C1017.8 722.689 1017.21 723.205 1017.21 723.205C1017.21 723.205 1002.48 723.268 1002.48 723.494C1002.48 723.721 994.425 724.101 991.293 731.171C988.161 738.241 986.269 737.29 984.957 744.071C983.644 750.851 982.268 753.576 983.146 756.192C984.024 758.808 984.223 771.164 985.5 771.364C986.776 771.563 990.741 779.357 981.942 782.779C973.143 786.201 959.474 784.254 956.966 788.328C954.459 792.402 948.548 799.698 948.729 801.753C948.91 803.808 946.828 824.945 947.298 825.814C947.769 826.683 943.044 842.625 943.759 843.702C944.474 844.779 941.613 848.536 941.613 848.536L932.48 856.411L917.796 866.976L887 890.077L906.074 893.834L918.159 886.049Z" fill="#01090F"/>
<path d="M1002.1 994.3C1002.1 1002.23 1000.7 1009.82 997.9 1017.05C995.1 1024.28 991.133 1031.28 986 1038.05C980.867 1044.82 974.8 1051.47 967.8 1058C961.033 1064.3 953.567 1070.48 945.4 1076.55C936.767 1083.08 926.733 1089.38 915.3 1095.45C903.867 1101.52 892.317 1106.88 880.65 1111.55C869.217 1116.45 858.367 1120.3 848.1 1123.1C837.833 1125.9 829.55 1127.3 823.25 1127.3C819.05 1127.3 816.017 1126.72 814.15 1125.55C812.05 1124.62 811 1122.28 811 1118.55C811 1115.98 811.933 1112.95 813.8 1109.45C815.667 1105.95 817.533 1104.2 819.4 1104.2C821.267 1104.2 822.667 1104.78 823.6 1105.95C824.3 1107.12 824.65 1108.4 824.65 1109.8C824.65 1110.5 824.65 1111.08 824.65 1111.55C824.417 1112.02 824.3 1112.37 824.3 1112.6V1113.3C833.167 1112.37 845.067 1109.57 860 1104.9C874.7 1100.47 892.317 1092.65 912.85 1081.45C921.717 1076.55 930.467 1070.83 939.1 1064.3C947.733 1057.53 955.433 1050.42 962.2 1042.95C969.2 1035.25 974.8 1027.32 979 1019.15C983.2 1010.75 985.3 1002.58 985.3 994.65C985.3 989.05 982.383 983.333 976.55 977.5C970.95 971.433 963.717 965.833 954.85 960.7C946.217 955.333 936.767 950.783 926.5 947.05C916.233 943.083 906.667 940.4 897.8 939C898.033 940.167 898.383 943.083 898.85 947.75C899.317 952.183 900.017 957.433 900.95 963.5C901.883 969.567 902.933 976.1 904.1 983.1C905.5 989.867 907.017 996.167 908.65 1002C910.517 1008.53 911.683 1013.43 912.15 1016.7C912.85 1019.73 913.317 1022.3 913.55 1024.4C913.783 1026.73 914.133 1029.77 914.6 1033.5C915.3 1037 915.767 1040.73 916 1044.7C916.467 1048.43 916.817 1052.05 917.05 1055.55C917.517 1058.82 917.75 1061.38 917.75 1063.25C917.75 1065.35 917.283 1067.57 916.35 1069.9C915.65 1072.23 914.717 1073.4 913.55 1073.4C910.75 1073.4 908.767 1072.47 907.6 1070.6C906.667 1068.5 905.733 1065.12 904.8 1060.45C904.1 1055.55 903.167 1049.25 902 1041.55C900.833 1033.85 898.617 1024.4 895.35 1013.2C890.683 997.567 887.417 982.867 885.55 969.1C883.683 955.1 882.517 944.017 882.05 935.85C882.05 935.85 881.467 935.85 880.3 935.85C879.367 935.617 877.967 935.5 876.1 935.5C874.467 935.5 872.483 935.5 870.15 935.5C868.05 935.267 866.067 935.15 864.2 935.15C860.233 935.15 856.617 935.967 853.35 937.6C850.083 939 847.4 940.633 845.3 942.5C842.967 944.367 841.1 946.117 839.7 947.75C838.067 949.15 837.017 949.85 836.55 949.85C834.917 949.85 832.7 949.5 829.9 948.8C826.867 947.867 825.35 946.233 825.35 943.9C825.35 940.867 826.867 937.833 829.9 934.8C832.7 931.533 836.2 928.733 840.4 926.4C844.6 923.833 849.15 921.85 854.05 920.45C858.95 918.817 863.5 918 867.7 918C874.7 918 882.867 918.933 892.2 920.8C901.533 922.667 911.1 925.233 920.9 928.5C930.933 931.767 940.733 935.733 950.3 940.4C960.1 945.067 968.85 950.2 976.55 955.8C984.25 961.4 990.433 967.467 995.1 974C999.767 980.533 1002.1 987.3 1002.1 994.3Z" fill="#CDC4C0"/>
<path d="M1032.87 988.3C1032.87 992.74 1031.89 996.81 1029.91 1000.51C1028.19 1004.21 1026.09 1007.42 1023.62 1010.13C1021.16 1012.6 1018.81 1014.57 1016.59 1016.05C1014.37 1017.53 1012.77 1018.27 1011.78 1018.27C1011.04 1018.27 1010.06 1017.78 1008.82 1016.79C1007.84 1015.56 1007.34 1014.2 1007.34 1012.72C1007.34 1012.47 1007.84 1011.61 1008.82 1010.13C1009.81 1008.65 1010.92 1006.92 1012.15 1004.95C1013.63 1002.73 1014.87 1000.26 1015.85 997.55C1016.84 994.59 1017.33 991.507 1017.33 988.3C1017.33 981.887 1016.72 976.213 1015.48 971.28C1014.25 966.1 1012.65 961.043 1010.67 956.11C1010.43 955.37 1010.06 954.507 1009.56 953.52C1009.32 952.533 1009.19 951.793 1009.19 951.3C1009.19 949.573 1009.69 948.463 1010.67 947.97C1011.91 947.477 1013.14 947.23 1014.37 947.23C1016.1 947.23 1018.07 948.833 1020.29 952.04C1022.51 955 1024.49 958.577 1026.21 962.77C1028.19 966.963 1029.79 971.527 1031.02 976.46C1032.26 981.147 1032.87 985.093 1032.87 988.3Z" fill="#CDC4C0"/>
<path fill-rule="evenodd" clip-rule="evenodd" d="M974.623 1065.31L974.614 1065.32C967.562 1071.88 959.819 1078.29 951.399 1084.55C942.276 1091.45 931.789 1098.02 919.987 1104.28C908.284 1110.49 896.447 1116 884.477 1120.79C872.728 1125.82 861.477 1129.82 850.731 1132.75C840.109 1135.64 830.841 1137.3 823.25 1137.3C818.815 1137.3 813.679 1136.79 809.444 1134.38C802.339 1130.84 801 1123.38 801 1118.55C801 1113.69 802.72 1108.97 804.976 1104.74C806.174 1102.5 807.715 1100.13 809.761 1098.22C811.851 1096.26 815.11 1094.2 819.4 1094.2C823.474 1094.2 828.113 1095.58 831.409 1099.7L831.829 1100.23L832.175 1100.81C832.378 1101.14 832.568 1101.49 832.745 1101.83C839.39 1100.48 847.457 1098.34 857.017 1095.36L857.065 1095.34L857.113 1095.33C869.005 1091.74 883.242 1085.69 899.891 1077.03C899.623 1076.67 899.366 1076.29 899.12 1075.9L898.747 1075.3L898.462 1074.66C897.055 1071.5 895.953 1067.2 894.994 1062.41L894.94 1062.14L894.901 1061.86C894.206 1057 893.277 1050.73 892.113 1043.05C891.038 1035.95 888.951 1026.98 885.759 1016.03C880.974 999.995 877.586 984.794 875.641 970.444L875.639 970.433L875.638 970.422C874.361 960.843 873.395 952.525 872.755 945.5H869.596L869.046 945.439C867.266 945.241 865.653 945.15 864.2 945.15C861.65 945.15 859.583 945.664 857.822 946.544L857.559 946.676L857.289 946.791C854.761 947.875 853.06 948.982 851.944 949.974L851.75 950.147L851.547 950.309C849.529 951.923 848.163 953.242 847.293 954.258L846.792 954.842L846.208 955.343C845.266 956.15 844.246 956.971 843.235 957.645C842.735 957.979 842.034 958.414 841.2 958.798C840.574 959.087 838.841 959.85 836.55 959.85C833.704 959.85 830.562 959.273 827.475 958.501L827.215 958.437L826.959 958.358C824.436 957.581 821.515 956.216 819.16 953.679C816.597 950.92 815.35 947.461 815.35 943.9C815.35 937.427 818.557 932.095 822.554 928.007C826.12 923.919 830.435 920.521 835.361 917.76C840.248 914.796 845.502 912.511 851.094 910.895C856.718 909.039 862.277 908 867.7 908C875.545 908 884.396 909.041 894.161 910.994C903.923 912.947 913.88 915.621 924.029 919.002C934.481 922.407 944.686 926.538 954.642 931.392C964.905 936.282 974.182 941.713 982.432 947.713C990.844 953.831 997.842 960.634 1003.24 968.188C1003.89 969.098 1004.5 970.018 1005.09 970.948C1004.08 967.165 1002.84 963.458 1001.39 959.824L1001.28 959.551L1001.19 959.272C1001.14 959.123 1000.98 958.714 1000.62 957.992L1000.13 957.01L999.863 955.945C999.581 954.818 999.195 953.085 999.195 951.3C999.195 948.133 1000.14 942.055 1006.2 939.026L1006.57 938.84L1006.96 938.685C1009.28 937.756 1011.77 937.23 1014.37 937.23C1018.4 937.23 1021.5 939.083 1023.46 940.671C1025.4 942.254 1027.04 944.229 1028.41 946.191C1031.14 949.863 1033.43 954.084 1035.37 958.735C1037.59 963.489 1039.36 968.578 1040.71 973.975C1042.05 979.093 1042.87 983.933 1042.87 988.3C1042.87 994.189 1041.57 999.805 1038.87 1004.97C1036.78 1009.39 1034.18 1013.38 1031.02 1016.86L1030.86 1017.03L1030.7 1017.2C1027.9 1020 1025.05 1022.43 1022.14 1024.37C1020.79 1025.27 1019.36 1026.13 1017.92 1026.79C1016.68 1027.37 1014.45 1028.27 1011.78 1028.27C1009.29 1028.27 1007.27 1027.47 1006.02 1026.84C1005.62 1026.64 1005.23 1026.43 1004.86 1026.2C1001.97 1032.39 998.323 1038.35 993.967 1044.09C988.449 1051.37 981.988 1058.44 974.623 1065.31ZM997.917 1017.01C997.911 1017.02 997.906 1017.04 997.9 1017.05C995.1 1024.28 991.133 1031.28 986 1038.05C980.867 1044.82 974.8 1051.47 967.8 1058C961.033 1064.3 953.567 1070.48 945.4 1076.55C936.767 1083.08 926.733 1089.38 915.3 1095.45C903.867 1101.52 892.317 1106.88 880.65 1111.55C869.217 1116.45 858.367 1120.3 848.1 1123.1C837.833 1125.9 829.55 1127.3 823.25 1127.3C819.05 1127.3 816.017 1126.72 814.15 1125.55C812.05 1124.62 811 1122.28 811 1118.55C811 1115.98 811.933 1112.95 813.8 1109.45C815.667 1105.95 817.533 1104.2 819.4 1104.2C821.211 1104.2 822.583 1104.75 823.516 1105.85C823.544 1105.88 823.572 1105.92 823.6 1105.95C824.3 1107.12 824.65 1108.4 824.65 1109.8V1111.55C824.417 1112.02 824.3 1112.37 824.3 1112.6V1113.3C825.29 1113.2 826.319 1113.07 827.385 1112.92C828.065 1112.82 828.761 1112.72 829.473 1112.6C831.116 1112.33 832.842 1112.02 834.65 1111.65C841.809 1110.19 850.259 1107.94 860 1104.9C873.983 1100.68 890.604 1093.4 909.864 1083.07C910.853 1082.54 911.848 1082 912.85 1081.45C913.083 1081.32 913.317 1081.19 913.55 1081.06C917.591 1078.81 921.608 1076.38 925.6 1073.79C930.131 1070.84 934.631 1067.68 939.1 1064.3C947.733 1057.53 955.433 1050.42 962.2 1042.95C969.2 1035.25 974.8 1027.32 979 1019.15C983.2 1010.75 985.3 1002.58 985.3 994.65C985.3 989.05 982.383 983.333 976.55 977.5C970.95 971.433 963.717 965.833 954.85 960.7C946.217 955.333 936.767 950.783 926.5 947.05C920.13 944.589 914.03 942.622 908.2 941.149C904.632 940.248 901.166 939.531 897.8 939C898.033 940.167 898.383 943.083 898.85 947.75C898.905 948.275 898.964 948.811 899.026 949.359C899.486 953.438 900.127 958.152 900.95 963.5C901.883 969.567 902.933 976.1 904.1 983.1C905.5 989.867 907.017 996.167 908.65 1002C910.517 1008.53 911.683 1013.43 912.15 1016.7C912.85 1019.73 913.317 1022.3 913.55 1024.4C913.783 1026.73 914.133 1029.77 914.6 1033.5C915.3 1037 915.767 1040.73 916 1044.7C916.467 1048.43 916.817 1052.05 917.05 1055.55C917.517 1058.82 917.75 1061.38 917.75 1063.25C917.75 1064.55 917.572 1065.89 917.216 1067.28C916.995 1068.13 916.707 1069.01 916.35 1069.9C915.65 1072.23 914.717 1073.4 913.55 1073.4C911.671 1073.4 910.16 1072.98 909.016 1072.14C908.456 1071.73 907.984 1071.21 907.6 1070.6C906.667 1068.5 905.733 1065.12 904.8 1060.45C904.1 1055.55 903.167 1049.25 902 1041.55C900.833 1033.85 898.617 1024.4 895.35 1013.2C890.683 997.567 887.417 982.867 885.55 969.1C883.683 955.1 882.517 944.017 882.05 935.85H880.3C879.367 935.617 877.967 935.5 876.1 935.5H870.15C868.05 935.267 866.067 935.15 864.2 935.15C860.233 935.15 856.617 935.967 853.35 937.6C850.083 939 847.4 940.633 845.3 942.5C842.967 944.367 841.1 946.117 839.7 947.75C838.067 949.15 837.017 949.85 836.55 949.85C834.917 949.85 832.7 949.5 829.9 948.8C826.867 947.867 825.35 946.233 825.35 943.9C825.35 940.867 826.867 937.833 829.9 934.8C832.7 931.533 836.2 928.733 840.4 926.4C844.6 923.833 849.15 921.85 854.05 920.45C858.95 918.817 863.5 918 867.7 918C874.7 918 882.867 918.933 892.2 920.8C901.533 922.667 911.1 925.233 920.9 928.5C930.933 931.767 940.733 935.733 950.3 940.4C960.1 945.067 968.85 950.2 976.55 955.8C984.25 961.4 990.433 967.467 995.1 974C999.767 980.533 1002.1 987.3 1002.1 994.3C1002.1 997.265 1001.9 1000.18 1001.51 1003.05C1001.42 1003.72 1001.32 1004.39 1001.21 1005.05C1000.77 1007.65 1000.16 1010.2 999.396 1012.72C998.957 1014.16 998.463 1015.59 997.917 1017.01ZM1011.08 1006.66C1010.69 1007.27 1010.31 1007.86 1009.95 1008.41C1009.93 1008.45 1009.91 1008.48 1009.88 1008.52C1009.52 1009.08 1009.16 1009.62 1008.82 1010.13C1007.84 1011.61 1007.34 1012.47 1007.34 1012.72C1007.34 1014.12 1007.78 1015.41 1008.67 1016.58C1008.72 1016.65 1008.77 1016.72 1008.82 1016.79C1010.06 1017.78 1011.04 1018.27 1011.78 1018.27C1012.77 1018.27 1014.37 1017.53 1016.59 1016.05C1016.66 1016 1016.73 1015.96 1016.8 1015.91C1016.92 1015.83 1017.03 1015.76 1017.14 1015.68C1017.15 1015.67 1017.15 1015.67 1017.15 1015.67C1019.2 1014.24 1021.36 1012.39 1023.62 1010.13C1026.09 1007.42 1028.19 1004.21 1029.91 1000.51C1031.89 996.81 1032.87 992.74 1032.87 988.3C1032.87 985.093 1032.26 981.147 1031.02 976.46C1029.79 971.527 1028.19 966.963 1026.21 962.77C1024.49 958.577 1022.51 955 1020.29 952.04C1019.94 951.533 1019.6 951.066 1019.26 950.64C1018.85 950.125 1018.45 949.669 1018.06 949.271C1016.73 947.91 1015.5 947.23 1014.37 947.23C1013.14 947.23 1011.91 947.477 1010.67 947.97C1009.69 948.463 1009.19 949.573 1009.19 951.3C1009.19 951.793 1009.32 952.533 1009.56 953.52C1010.06 954.507 1010.43 955.37 1010.67 956.11C1012.65 961.043 1014.25 966.1 1015.48 971.28C1016.72 976.213 1017.33 981.887 1017.33 988.3C1017.33 991.507 1016.84 994.59 1015.85 997.55C1014.87 1000.26 1013.63 1002.73 1012.15 1004.95C1011.78 1005.54 1011.42 1006.11 1011.08 1006.66ZM927.638 1060.31C929.428 1059.04 931.215 1057.73 932.998 1056.38C941.197 1049.95 948.453 1043.23 954.79 1036.23L954.801 1036.22C961.272 1029.1 966.334 1021.9 970.081 1014.63C973.696 1007.38 975.3 1000.76 975.3 994.65C975.3 992.733 974.32 989.412 969.479 984.571L969.338 984.43L969.202 984.283C964.424 979.106 958.038 974.101 949.84 969.354L949.704 969.276L949.571 969.193C941.567 964.218 932.747 959.962 923.083 956.448L922.989 956.414L922.896 956.378C918.193 954.561 913.694 953.047 909.394 951.824C909.781 954.869 910.26 958.253 910.834 961.979C911.751 967.944 912.784 974.371 913.932 981.263C915.278 987.753 916.727 993.755 918.272 999.278C920.09 1005.64 921.386 1010.92 921.985 1014.85C922.689 1017.95 923.21 1020.78 923.489 1023.3L923.495 1023.35L923.5 1023.4C923.715 1025.55 924.04 1028.38 924.479 1031.91C925.218 1035.7 925.707 1039.66 925.963 1043.78C926.416 1047.45 926.763 1051.02 927.003 1054.51C927.293 1056.58 927.514 1058.53 927.638 1060.31Z" fill="black"/>
<mask id="path-17-outside-1_12_58" maskUnits="userSpaceOnUse" x="1032.5" y="943.9" width="435" height="138" fill="black">
<rect fill="white" x="1032.5" y="943.9" width="435" height="138"/>
<path d="M1129.4 1036.4C1129.4 1043 1128.22 1048.21 1125.88 1052.02C1123.53 1055.69 1120.08 1059.13 1115.54 1062.36C1114.36 1063.09 1112.75 1063.97 1110.7 1065C1108.64 1066.03 1106.37 1066.98 1103.88 1067.86C1101.38 1068.74 1098.74 1069.47 1095.96 1070.06C1093.17 1070.65 1090.6 1070.94 1088.26 1070.94C1081.66 1070.94 1076.67 1070.21 1073.3 1068.74C1069.92 1067.42 1068.24 1065.81 1068.24 1063.9C1068.24 1061.85 1068.82 1060.16 1070 1058.84C1071.17 1057.52 1072.2 1056.79 1073.08 1056.64L1075.5 1058.4C1076.23 1059.13 1077.26 1059.94 1078.58 1060.82C1079.9 1061.55 1082.02 1061.92 1084.96 1061.92C1087.74 1061.92 1091.12 1061.48 1095.08 1060.6C1099.04 1059.57 1102.78 1058.11 1106.3 1056.2C1109.96 1054.15 1113.04 1051.65 1115.54 1048.72C1118.18 1045.79 1119.5 1042.41 1119.5 1038.6C1119.5 1035.23 1116.93 1032.15 1111.8 1029.36C1106.81 1026.43 1098.89 1024.45 1088.04 1023.42C1082.46 1022.98 1076.96 1022.32 1071.54 1021.44C1066.11 1020.41 1061.2 1019.09 1056.8 1017.48C1052.54 1015.72 1049.1 1013.59 1046.46 1011.1C1043.82 1008.46 1042.5 1005.23 1042.5 1001.42C1042.5 997.753 1043.52 994.233 1045.58 990.86C1047.63 987.487 1050.12 984.407 1053.06 981.62C1056.14 978.687 1059.29 976.12 1062.52 973.92C1065.74 971.72 1068.46 969.887 1070.66 968.42C1072.42 967.393 1074.84 966.073 1077.92 964.46C1081.14 962.7 1084.52 961.087 1088.04 959.62C1091.7 958.007 1095.3 956.687 1098.82 955.66C1102.48 954.487 1105.56 953.9 1108.06 953.9C1110.99 953.9 1112.97 954.707 1114 956.32C1115.02 957.933 1115.54 960.207 1115.54 963.14C1115.54 965.633 1115.24 968.273 1114.66 971.06C1114.07 973.847 1113.41 976.56 1112.68 979.2C1111.94 981.84 1111.21 984.187 1110.48 986.24C1109.89 988.147 1109.45 989.393 1109.16 989.98C1108.57 991.3 1107.91 992.18 1107.18 992.62C1106.44 993.06 1105.93 993.28 1105.64 993.28C1105.05 993.28 1104.76 992.913 1104.76 992.18C1104.76 991.74 1104.83 990.933 1104.98 989.76C1105.27 988.44 1105.56 986.9 1105.86 985.14C1106.3 983.38 1106.59 981.473 1106.74 979.42C1107.03 977.367 1107.18 975.313 1107.18 973.26C1107.18 970.033 1107.03 967.687 1106.74 966.22C1106.44 964.753 1105.27 964.02 1103.22 964.02C1101.16 964.02 1098.38 964.607 1094.86 965.78C1091.34 966.807 1087.74 968.127 1084.08 969.74C1080.12 971.5 1076.23 973.773 1072.42 976.56C1068.75 979.347 1065.45 982.207 1062.52 985.14C1059.58 988.073 1057.16 990.933 1055.26 993.72C1053.5 996.36 1052.62 998.487 1052.62 1000.1C1052.62 1001.86 1053.79 1003.55 1056.14 1005.16C1058.63 1006.63 1061.71 1007.95 1065.38 1009.12C1069.19 1010.29 1073.37 1011.32 1077.92 1012.2C1082.46 1013.08 1086.94 1013.74 1091.34 1014.18C1095 1014.62 1099.04 1015.21 1103.44 1015.94C1107.84 1016.67 1111.94 1017.85 1115.76 1019.46C1119.57 1021.07 1122.8 1023.27 1125.44 1026.06C1128.08 1028.7 1129.4 1032.15 1129.4 1036.4Z"/>
<path d="M1177.36 1000.5C1176.06 1002 1174.21 1003.5 1171.81 1005C1169.41 1006.4 1167.01 1007.7 1164.61 1008.9C1162.21 1010.1 1160.11 1011.15 1158.31 1012.05C1156.51 1012.85 1155.61 1013.4 1155.61 1013.7C1155.61 1014 1155.81 1014.9 1156.21 1016.4C1156.61 1017.9 1157.06 1019.7 1157.56 1021.8C1158.16 1023.8 1158.76 1025.9 1159.36 1028.1C1159.96 1030.3 1160.46 1032.25 1160.86 1033.95C1161.06 1034.95 1161.31 1036.25 1161.61 1037.85C1161.91 1039.45 1162.16 1041.05 1162.36 1042.65C1162.66 1044.25 1162.91 1045.7 1163.11 1047C1163.31 1048.2 1163.41 1048.85 1163.41 1048.95C1163.41 1050.45 1163.16 1052 1162.66 1053.6C1162.16 1055.2 1161.36 1056 1160.26 1056C1159.66 1056 1159.11 1055.75 1158.61 1055.25C1158.11 1054.75 1157.66 1054.2 1157.26 1053.6C1156.86 1052.9 1156.56 1052.25 1156.36 1051.65C1156.16 1051.05 1156.06 1050.6 1156.06 1050.3C1156.06 1050.1 1156.06 1049.8 1156.06 1049.4C1156.16 1049 1156.21 1048.55 1156.21 1048.05C1156.21 1046.15 1155.91 1043.4 1155.31 1039.8C1155.11 1038.7 1154.71 1037 1154.11 1034.7C1153.51 1032.4 1152.91 1030.05 1152.31 1027.65C1151.61 1024.85 1150.81 1021.8 1149.91 1018.5C1149.51 1017.1 1149.26 1016.4 1149.16 1016.4C1148.46 1016.4 1147.26 1016.85 1145.56 1017.75C1143.96 1018.55 1142.11 1019.6 1140.01 1020.9C1137.91 1022.1 1135.71 1023.45 1133.41 1024.95C1131.11 1026.35 1128.96 1027.7 1126.96 1029C1124.96 1030.2 1123.26 1031.25 1121.86 1032.15C1120.36 1032.95 1119.46 1033.35 1119.16 1033.35C1117.86 1033.35 1116.81 1032.9 1116.01 1032C1115.21 1031.1 1114.81 1030.1 1114.81 1029C1114.81 1028.4 1115.66 1027.55 1117.36 1026.45C1118.96 1025.25 1121.01 1023.95 1123.51 1022.55C1125.91 1021.15 1128.56 1019.7 1131.46 1018.2C1134.26 1016.7 1136.86 1015.35 1139.26 1014.15C1141.76 1012.95 1143.81 1011.95 1145.41 1011.15C1147.11 1010.35 1147.96 1009.95 1147.96 1009.95C1147.06 1005.35 1146.31 1001.25 1145.71 997.65C1145.21 994.55 1144.71 991.7 1144.21 989.1C1143.81 986.5 1143.61 985.1 1143.61 984.9C1143.61 983.6 1143.86 982.65 1144.36 982.05C1144.96 981.35 1145.61 981 1146.31 981C1147.41 981 1148.11 981.75 1148.41 983.25C1149.51 988.65 1150.51 993.45 1151.41 997.65C1152.41 1001.85 1153.36 1005.25 1154.26 1007.85C1155.16 1007.65 1156.71 1007.1 1158.91 1006.2C1161.11 1005.2 1163.41 1004.15 1165.81 1003.05C1168.21 1001.95 1170.36 1001 1172.26 1000.2C1174.26 999.3 1175.41 998.85 1175.71 998.85C1176.31 998.85 1176.66 999.05 1176.76 999.45C1176.96 999.85 1177.16 1000.2 1177.36 1000.5Z"/>
<path d="M1221.96 1052.55C1222.06 1052.75 1222.11 1053.05 1222.11 1053.45C1222.11 1054.05 1221.66 1054.95 1220.76 1056.15C1220.46 1056.55 1219.81 1057.2 1218.81 1058.1C1217.81 1059 1216.46 1059.9 1214.76 1060.8C1213.06 1061.7 1210.96 1062.5 1208.46 1063.2C1206.06 1063.9 1203.21 1064.25 1199.91 1064.25C1197.61 1064.25 1195.36 1063.75 1193.16 1062.75C1190.96 1061.65 1189.01 1060.1 1187.31 1058.1C1185.61 1056 1184.21 1053.45 1183.11 1050.45C1182.01 1047.35 1181.46 1043.75 1181.46 1039.65C1181.46 1035.75 1181.96 1032.1 1182.96 1028.7C1183.96 1025.3 1185.21 1022.3 1186.71 1019.7C1188.31 1017.1 1190.06 1015.05 1191.96 1013.55C1193.86 1012.05 1195.71 1011.3 1197.51 1011.3C1199.11 1011.3 1200.71 1011.65 1202.31 1012.35C1204.01 1012.95 1205.51 1013.75 1206.81 1014.75C1208.21 1015.75 1209.31 1016.9 1210.11 1018.2C1210.91 1019.4 1211.31 1020.65 1211.31 1021.95C1211.31 1023.45 1210.61 1025 1209.21 1026.6C1207.91 1028.2 1206.31 1029.7 1204.41 1031.1C1202.51 1032.4 1200.61 1033.5 1198.71 1034.4C1196.81 1035.2 1195.31 1035.6 1194.21 1035.6C1193.61 1035.6 1193.06 1035.35 1192.56 1034.85C1192.16 1034.25 1191.96 1033.55 1191.96 1032.75C1191.96 1031.35 1192.56 1030.25 1193.76 1029.45C1195.06 1028.65 1196.46 1027.95 1197.96 1027.35C1199.46 1026.65 1200.81 1025.85 1202.01 1024.95C1203.31 1024.05 1203.96 1022.8 1203.96 1021.2C1203.96 1021 1203.71 1020.5 1203.21 1019.7C1202.71 1018.9 1201.36 1018.5 1199.16 1018.5C1198.16 1018.5 1197.01 1019.1 1195.71 1020.3C1194.41 1021.4 1193.16 1022.95 1191.96 1024.95C1190.76 1026.85 1189.76 1029.15 1188.96 1031.85C1188.16 1034.45 1187.76 1037.3 1187.76 1040.4C1187.76 1043 1188.21 1045.35 1189.11 1047.45C1190.11 1049.55 1191.36 1051.35 1192.86 1052.85C1194.36 1054.25 1196.11 1055.35 1198.11 1056.15C1200.11 1056.95 1202.16 1057.35 1204.26 1057.35C1205.76 1057.35 1207.36 1057.05 1209.06 1056.45C1210.86 1055.75 1212.51 1055.05 1214.01 1054.35C1215.61 1053.55 1216.96 1052.85 1218.06 1052.25C1219.26 1051.55 1220.01 1051.2 1220.31 1051.2C1220.61 1051.2 1220.91 1051.35 1221.21 1051.65C1221.61 1051.95 1221.86 1052.25 1221.96 1052.55Z"/>
<path d="M1293.91 1054.2C1293.91 1055 1293.66 1055.7 1293.16 1056.3C1292.66 1056.9 1292.06 1057.4 1291.36 1057.8C1290.66 1058.1 1289.91 1058.35 1289.11 1058.55C1288.41 1058.75 1287.81 1058.85 1287.31 1058.85C1285.21 1058.85 1283.41 1057.75 1281.91 1055.55C1280.41 1053.25 1279.16 1050.75 1278.16 1048.05C1277.16 1045.25 1276.41 1042.65 1275.91 1040.25C1275.51 1037.85 1275.31 1036.55 1275.31 1036.35C1274.71 1037.45 1274.06 1039.3 1273.36 1041.9C1272.76 1044.5 1272.01 1047.15 1271.11 1049.85C1270.21 1052.45 1269.06 1054.8 1267.66 1056.9C1266.36 1058.9 1264.66 1059.9 1262.56 1059.9C1261.56 1059.9 1260.61 1059.3 1259.71 1058.1C1258.81 1056.9 1257.96 1055.35 1257.16 1053.45C1256.36 1051.55 1255.56 1049.4 1254.76 1047C1254.06 1044.6 1253.31 1042.25 1252.51 1039.95C1251.81 1037.65 1251.11 1035.5 1250.41 1033.5C1249.71 1031.4 1249.01 1029.75 1248.31 1028.55C1247.71 1030.05 1247.16 1032.1 1246.66 1034.7C1246.26 1037.3 1245.91 1040.05 1245.61 1042.95C1245.31 1045.75 1245.06 1048.55 1244.86 1051.35C1244.66 1054.15 1244.56 1056.6 1244.56 1058.7C1244.56 1060.1 1244.16 1061.1 1243.36 1061.7C1242.66 1062.3 1241.91 1062.6 1241.11 1062.6C1240.01 1062.6 1238.91 1061.9 1237.81 1060.5C1236.71 1059 1235.61 1057.1 1234.51 1054.8C1233.41 1052.5 1232.36 1049.9 1231.36 1047C1230.46 1044.1 1229.61 1041.2 1228.81 1038.3C1228.11 1035.4 1227.56 1032.65 1227.16 1030.05C1226.76 1027.35 1226.56 1025.1 1226.56 1023.3C1226.56 1022 1226.61 1020.8 1226.71 1019.7C1226.81 1018.8 1226.86 1017.95 1226.86 1017.15C1226.96 1016.35 1227.01 1015.9 1227.01 1015.8C1227.01 1015.5 1226.91 1015.3 1226.71 1015.2C1226.61 1015.1 1226.56 1014.85 1226.56 1014.45C1226.56 1014.15 1226.91 1013.7 1227.61 1013.1C1228.41 1012.4 1229.21 1012.05 1230.01 1012.05C1231.41 1012.05 1232.31 1012.35 1232.71 1012.95C1233.21 1013.55 1233.46 1014.25 1233.46 1015.05C1233.46 1015.35 1233.41 1015.8 1233.31 1016.4C1233.31 1017 1233.31 1018.35 1233.31 1020.45C1233.31 1021.85 1233.56 1023.95 1234.06 1026.75C1234.56 1029.55 1235.16 1032.4 1235.86 1035.3C1236.56 1038.2 1237.26 1040.9 1237.96 1043.4C1238.76 1045.8 1239.41 1047.3 1239.91 1047.9C1240.11 1047.5 1240.21 1047.05 1240.21 1046.55C1240.31 1045.95 1240.41 1045.5 1240.51 1045.2L1242.16 1032.9C1242.56 1029.8 1243.36 1026.55 1244.56 1023.15C1245.86 1019.65 1247.21 1016.95 1248.61 1015.05C1249.11 1014.25 1249.66 1013.85 1250.26 1013.85C1250.86 1013.85 1251.41 1014.3 1251.91 1015.2C1253.61 1018 1254.86 1020.8 1255.66 1023.6C1256.56 1026.3 1257.31 1029 1257.91 1031.7C1258.61 1034.3 1259.36 1036.95 1260.16 1039.65C1261.06 1042.25 1262.41 1044.9 1264.21 1047.6C1265.01 1046.3 1266.01 1044.2 1267.21 1041.3C1268.41 1038.3 1269.61 1035.3 1270.81 1032.3C1272.11 1029.3 1273.31 1026.7 1274.41 1024.5C1275.51 1022.2 1276.36 1021.05 1276.96 1021.05C1277.26 1021.05 1277.76 1021.1 1278.46 1021.2C1279.16 1021.3 1279.66 1021.35 1279.96 1021.35C1280.86 1021.35 1281.61 1022.4 1282.21 1024.5C1282.81 1026.5 1283.31 1028.9 1283.71 1031.7C1284.21 1034.4 1284.66 1037.15 1285.06 1039.95C1285.56 1042.65 1286.11 1044.7 1286.71 1046.1C1287.11 1047.1 1287.71 1048.05 1288.51 1048.95C1289.31 1049.85 1290.11 1050.7 1290.91 1051.5C1291.91 1052.4 1292.91 1053.3 1293.91 1054.2Z"/>
<path d="M1367.32 1054.2C1367.32 1055 1367.07 1055.7 1366.57 1056.3C1366.07 1056.9 1365.47 1057.4 1364.77 1057.8C1364.07 1058.1 1363.32 1058.35 1362.52 1058.55C1361.82 1058.75 1361.22 1058.85 1360.72 1058.85C1358.62 1058.85 1356.82 1057.75 1355.32 1055.55C1353.82 1053.25 1352.57 1050.75 1351.57 1048.05C1350.57 1045.25 1349.82 1042.65 1349.32 1040.25C1348.92 1037.85 1348.72 1036.55 1348.72 1036.35C1348.12 1037.45 1347.47 1039.3 1346.77 1041.9C1346.17 1044.5 1345.42 1047.15 1344.52 1049.85C1343.62 1052.45 1342.47 1054.8 1341.07 1056.9C1339.77 1058.9 1338.07 1059.9 1335.97 1059.9C1334.97 1059.9 1334.02 1059.3 1333.12 1058.1C1332.22 1056.9 1331.37 1055.35 1330.57 1053.45C1329.77 1051.55 1328.97 1049.4 1328.17 1047C1327.47 1044.6 1326.72 1042.25 1325.92 1039.95C1325.22 1037.65 1324.52 1035.5 1323.82 1033.5C1323.12 1031.4 1322.42 1029.75 1321.72 1028.55C1321.12 1030.05 1320.57 1032.1 1320.07 1034.7C1319.67 1037.3 1319.32 1040.05 1319.02 1042.95C1318.72 1045.75 1318.47 1048.55 1318.27 1051.35C1318.07 1054.15 1317.97 1056.6 1317.97 1058.7C1317.97 1060.1 1317.57 1061.1 1316.77 1061.7C1316.07 1062.3 1315.32 1062.6 1314.52 1062.6C1313.42 1062.6 1312.32 1061.9 1311.22 1060.5C1310.12 1059 1309.02 1057.1 1307.92 1054.8C1306.82 1052.5 1305.77 1049.9 1304.77 1047C1303.87 1044.1 1303.02 1041.2 1302.22 1038.3C1301.52 1035.4 1300.97 1032.65 1300.57 1030.05C1300.17 1027.35 1299.97 1025.1 1299.97 1023.3C1299.97 1022 1300.02 1020.8 1300.12 1019.7C1300.22 1018.8 1300.27 1017.95 1300.27 1017.15C1300.37 1016.35 1300.42 1015.9 1300.42 1015.8C1300.42 1015.5 1300.32 1015.3 1300.12 1015.2C1300.02 1015.1 1299.97 1014.85 1299.97 1014.45C1299.97 1014.15 1300.32 1013.7 1301.02 1013.1C1301.82 1012.4 1302.62 1012.05 1303.42 1012.05C1304.82 1012.05 1305.72 1012.35 1306.12 1012.95C1306.62 1013.55 1306.87 1014.25 1306.87 1015.05C1306.87 1015.35 1306.82 1015.8 1306.72 1016.4C1306.72 1017 1306.72 1018.35 1306.72 1020.45C1306.72 1021.85 1306.97 1023.95 1307.47 1026.75C1307.97 1029.55 1308.57 1032.4 1309.27 1035.3C1309.97 1038.2 1310.67 1040.9 1311.37 1043.4C1312.17 1045.8 1312.82 1047.3 1313.32 1047.9C1313.52 1047.5 1313.62 1047.05 1313.62 1046.55C1313.72 1045.95 1313.82 1045.5 1313.92 1045.2L1315.57 1032.9C1315.97 1029.8 1316.77 1026.55 1317.97 1023.15C1319.27 1019.65 1320.62 1016.95 1322.02 1015.05C1322.52 1014.25 1323.07 1013.85 1323.67 1013.85C1324.27 1013.85 1324.82 1014.3 1325.32 1015.2C1327.02 1018 1328.27 1020.8 1329.07 1023.6C1329.97 1026.3 1330.72 1029 1331.32 1031.7C1332.02 1034.3 1332.77 1036.95 1333.57 1039.65C1334.47 1042.25 1335.82 1044.9 1337.62 1047.6C1338.42 1046.3 1339.42 1044.2 1340.62 1041.3C1341.82 1038.3 1343.02 1035.3 1344.22 1032.3C1345.52 1029.3 1346.72 1026.7 1347.82 1024.5C1348.92 1022.2 1349.77 1021.05 1350.37 1021.05C1350.67 1021.05 1351.17 1021.1 1351.87 1021.2C1352.57 1021.3 1353.07 1021.35 1353.37 1021.35C1354.27 1021.35 1355.02 1022.4 1355.62 1024.5C1356.22 1026.5 1356.72 1028.9 1357.12 1031.7C1357.62 1034.4 1358.07 1037.15 1358.47 1039.95C1358.97 1042.65 1359.52 1044.7 1360.12 1046.1C1360.52 1047.1 1361.12 1048.05 1361.92 1048.95C1362.72 1049.85 1363.52 1050.7 1364.32 1051.5C1365.32 1052.4 1366.32 1053.3 1367.32 1054.2Z"/>
<path d="M1415.83 1052.55C1415.93 1052.75 1415.98 1053.05 1415.98 1053.45C1415.98 1054.05 1415.53 1054.95 1414.63 1056.15C1414.33 1056.55 1413.68 1057.2 1412.68 1058.1C1411.68 1059 1410.33 1059.9 1408.63 1060.8C1406.93 1061.7 1404.83 1062.5 1402.33 1063.2C1399.93 1063.9 1397.08 1064.25 1393.78 1064.25C1391.48 1064.25 1389.23 1063.75 1387.03 1062.75C1384.83 1061.65 1382.88 1060.1 1381.18 1058.1C1379.48 1056 1378.08 1053.45 1376.98 1050.45C1375.88 1047.35 1375.33 1043.75 1375.33 1039.65C1375.33 1035.75 1375.83 1032.1 1376.83 1028.7C1377.83 1025.3 1379.08 1022.3 1380.58 1019.7C1382.18 1017.1 1383.93 1015.05 1385.83 1013.55C1387.73 1012.05 1389.58 1011.3 1391.38 1011.3C1392.98 1011.3 1394.58 1011.65 1396.18 1012.35C1397.88 1012.95 1399.38 1013.75 1400.68 1014.75C1402.08 1015.75 1403.18 1016.9 1403.98 1018.2C1404.78 1019.4 1405.18 1020.65 1405.18 1021.95C1405.18 1023.45 1404.48 1025 1403.08 1026.6C1401.78 1028.2 1400.18 1029.7 1398.28 1031.1C1396.38 1032.4 1394.48 1033.5 1392.58 1034.4C1390.68 1035.2 1389.18 1035.6 1388.08 1035.6C1387.48 1035.6 1386.93 1035.35 1386.43 1034.85C1386.03 1034.25 1385.83 1033.55 1385.83 1032.75C1385.83 1031.35 1386.43 1030.25 1387.63 1029.45C1388.93 1028.65 1390.33 1027.95 1391.83 1027.35C1393.33 1026.65 1394.68 1025.85 1395.88 1024.95C1397.18 1024.05 1397.83 1022.8 1397.83 1021.2C1397.83 1021 1397.58 1020.5 1397.08 1019.7C1396.58 1018.9 1395.23 1018.5 1393.03 1018.5C1392.03 1018.5 1390.88 1019.1 1389.58 1020.3C1388.28 1021.4 1387.03 1022.95 1385.83 1024.95C1384.63 1026.85 1383.63 1029.15 1382.83 1031.85C1382.03 1034.45 1381.63 1037.3 1381.63 1040.4C1381.63 1043 1382.08 1045.35 1382.98 1047.45C1383.98 1049.55 1385.23 1051.35 1386.73 1052.85C1388.23 1054.25 1389.98 1055.35 1391.98 1056.15C1393.98 1056.95 1396.03 1057.35 1398.13 1057.35C1399.63 1057.35 1401.23 1057.05 1402.93 1056.45C1404.73 1055.75 1406.38 1055.05 1407.88 1054.35C1409.48 1053.55 1410.83 1052.85 1411.93 1052.25C1413.13 1051.55 1413.88 1051.2 1414.18 1051.2C1414.48 1051.2 1414.78 1051.35 1415.08 1051.65C1415.48 1051.95 1415.73 1052.25 1415.83 1052.55Z"/>
<path d="M1456.57 1022.55C1456.57 1023.25 1456.27 1023.85 1455.67 1024.35C1455.07 1024.75 1454.37 1025.1 1453.57 1025.4C1452.77 1025.7 1451.97 1025.95 1451.17 1026.15C1450.37 1026.25 1449.72 1026.3 1449.22 1026.3C1447.72 1026.3 1446.72 1026.2 1446.22 1026C1445.72 1025.8 1445.32 1025.7 1445.02 1025.7C1442.52 1025.7 1440.52 1025.9 1439.02 1026.3C1437.52 1026.7 1436.32 1027.35 1435.42 1028.25C1434.62 1029.15 1434.07 1030.3 1433.77 1031.7C1433.57 1033 1433.47 1034.6 1433.47 1036.5C1433.47 1039.7 1433.57 1042.25 1433.77 1044.15C1434.07 1046.05 1434.32 1047.6 1434.52 1048.8C1434.82 1050 1435.07 1050.95 1435.27 1051.65C1435.57 1052.25 1435.72 1052.85 1435.72 1053.45C1435.72 1054.25 1435.27 1055.1 1434.37 1056C1433.57 1056.9 1432.82 1057.35 1432.12 1057.35C1430.92 1057.35 1429.82 1056.3 1428.82 1054.2C1427.92 1052 1427.12 1049.45 1426.42 1046.55C1425.82 1043.55 1425.32 1040.6 1424.92 1037.7C1424.52 1034.8 1424.32 1032.6 1424.32 1031.1C1424.32 1029.4 1424.47 1027.8 1424.77 1026.3C1425.07 1024.7 1425.47 1023.35 1425.97 1022.25C1426.47 1021.05 1427.02 1020.1 1427.62 1019.4C1428.22 1018.7 1428.82 1018.35 1429.42 1018.35C1429.92 1018.35 1430.32 1018.55 1430.62 1018.95C1430.92 1019.25 1431.17 1019.65 1431.37 1020.15C1431.57 1020.55 1431.77 1020.95 1431.97 1021.35C1432.27 1021.65 1432.62 1021.8 1433.02 1021.8C1433.92 1021.8 1435.37 1021.35 1437.37 1020.45C1439.37 1019.55 1441.82 1019.1 1444.72 1019.1C1447.42 1019.1 1449.42 1019.2 1450.72 1019.4C1452.12 1019.5 1453.47 1019.8 1454.77 1020.3C1455.07 1020.4 1455.42 1020.65 1455.82 1021.05C1456.32 1021.35 1456.57 1021.85 1456.57 1022.55Z"/>
</mask>
<path d="M1129.4 1036.4C1129.4 1043 1128.22 1048.21 1125.88 1052.02C1123.53 1055.69 1120.08 1059.13 1115.54 1062.36C1114.36 1063.09 1112.75 1063.97 1110.7 1065C1108.64 1066.03 1106.37 1066.98 1103.88 1067.86C1101.38 1068.74 1098.74 1069.47 1095.96 1070.06C1093.17 1070.65 1090.6 1070.94 1088.26 1070.94C1081.66 1070.94 1076.67 1070.21 1073.3 1068.74C1069.92 1067.42 1068.24 1065.81 1068.24 1063.9C1068.24 1061.85 1068.82 1060.16 1070 1058.84C1071.17 1057.52 1072.2 1056.79 1073.08 1056.64L1075.5 1058.4C1076.23 1059.13 1077.26 1059.94 1078.58 1060.82C1079.9 1061.55 1082.02 1061.92 1084.96 1061.92C1087.74 1061.92 1091.12 1061.48 1095.08 1060.6C1099.04 1059.57 1102.78 1058.11 1106.3 1056.2C1109.96 1054.15 1113.04 1051.65 1115.54 1048.72C1118.18 1045.79 1119.5 1042.41 1119.5 1038.6C1119.5 1035.23 1116.93 1032.15 1111.8 1029.36C1106.81 1026.43 1098.89 1024.45 1088.04 1023.42C1082.46 1022.98 1076.96 1022.32 1071.54 1021.44C1066.11 1020.41 1061.2 1019.09 1056.8 1017.48C1052.54 1015.72 1049.1 1013.59 1046.46 1011.1C1043.82 1008.46 1042.5 1005.23 1042.5 1001.42C1042.5 997.753 1043.52 994.233 1045.58 990.86C1047.63 987.487 1050.12 984.407 1053.06 981.62C1056.14 978.687 1059.29 976.12 1062.52 973.92C1065.74 971.72 1068.46 969.887 1070.66 968.42C1072.42 967.393 1074.84 966.073 1077.92 964.46C1081.14 962.7 1084.52 961.087 1088.04 959.62C1091.7 958.007 1095.3 956.687 1098.82 955.66C1102.48 954.487 1105.56 953.9 1108.06 953.9C1110.99 953.9 1112.97 954.707 1114 956.32C1115.02 957.933 1115.54 960.207 1115.54 963.14C1115.54 965.633 1115.24 968.273 1114.66 971.06C1114.07 973.847 1113.41 976.56 1112.68 979.2C1111.94 981.84 1111.21 984.187 1110.48 986.24C1109.89 988.147 1109.45 989.393 1109.16 989.98C1108.57 991.3 1107.91 992.18 1107.18 992.62C1106.44 993.06 1105.93 993.28 1105.64 993.28C1105.05 993.28 1104.76 992.913 1104.76 992.18C1104.76 991.74 1104.83 990.933 1104.98 989.76C1105.27 988.44 1105.56 986.9 1105.86 985.14C1106.3 983.38 1106.59 981.473 1106.74 979.42C1107.03 977.367 1107.18 975.313 1107.18 973.26C1107.18 970.033 1107.03 967.687 1106.74 966.22C1106.44 964.753 1105.27 964.02 1103.22 964.02C1101.16 964.02 1098.38 964.607 1094.86 965.78C1091.34 966.807 1087.74 968.127 1084.08 969.74C1080.12 971.5 1076.23 973.773 1072.42 976.56C1068.75 979.347 1065.45 982.207 1062.52 985.14C1059.58 988.073 1057.16 990.933 1055.26 993.72C1053.5 996.36 1052.62 998.487 1052.62 1000.1C1052.62 1001.86 1053.79 1003.55 1056.14 1005.16C1058.63 1006.63 1061.71 1007.95 1065.38 1009.12C1069.19 1010.29 1073.37 1011.32 1077.92 1012.2C1082.46 1013.08 1086.94 1013.74 1091.34 1014.18C1095 1014.62 1099.04 1015.21 1103.44 1015.94C1107.84 1016.67 1111.94 1017.85 1115.76 1019.46C1119.57 1021.07 1122.8 1023.27 1125.44 1026.06C1128.08 1028.7 1129.4 1032.15 1129.4 1036.4Z" fill="#CDC4C0"/>
<path d="M1177.36 1000.5C1176.06 1002 1174.21 1003.5 1171.81 1005C1169.41 1006.4 1167.01 1007.7 1164.61 1008.9C1162.21 1010.1 1160.11 1011.15 1158.31 1012.05C1156.51 1012.85 1155.61 1013.4 1155.61 1013.7C1155.61 1014 1155.81 1014.9 1156.21 1016.4C1156.61 1017.9 1157.06 1019.7 1157.56 1021.8C1158.16 1023.8 1158.76 1025.9 1159.36 1028.1C1159.96 1030.3 1160.46 1032.25 1160.86 1033.95C1161.06 1034.95 1161.31 1036.25 1161.61 1037.85C1161.91 1039.45 1162.16 1041.05 1162.36 1042.65C1162.66 1044.25 1162.91 1045.7 1163.11 1047C1163.31 1048.2 1163.41 1048.85 1163.41 1048.95C1163.41 1050.45 1163.16 1052 1162.66 1053.6C1162.16 1055.2 1161.36 1056 1160.26 1056C1159.66 1056 1159.11 1055.75 1158.61 1055.25C1158.11 1054.75 1157.66 1054.2 1157.26 1053.6C1156.86 1052.9 1156.56 1052.25 1156.36 1051.65C1156.16 1051.05 1156.06 1050.6 1156.06 1050.3C1156.06 1050.1 1156.06 1049.8 1156.06 1049.4C1156.16 1049 1156.21 1048.55 1156.21 1048.05C1156.21 1046.15 1155.91 1043.4 1155.31 1039.8C1155.11 1038.7 1154.71 1037 1154.11 1034.7C1153.51 1032.4 1152.91 1030.05 1152.31 1027.65C1151.61 1024.85 1150.81 1021.8 1149.91 1018.5C1149.51 1017.1 1149.26 1016.4 1149.16 1016.4C1148.46 1016.4 1147.26 1016.85 1145.56 1017.75C1143.96 1018.55 1142.11 1019.6 1140.01 1020.9C1137.91 1022.1 1135.71 1023.45 1133.41 1024.95C1131.11 1026.35 1128.96 1027.7 1126.96 1029C1124.96 1030.2 1123.26 1031.25 1121.86 1032.15C1120.36 1032.95 1119.46 1033.35 1119.16 1033.35C1117.86 1033.35 1116.81 1032.9 1116.01 1032C1115.21 1031.1 1114.81 1030.1 1114.81 1029C1114.81 1028.4 1115.66 1027.55 1117.36 1026.45C1118.96 1025.25 1121.01 1023.95 1123.51 1022.55C1125.91 1021.15 1128.56 1019.7 1131.46 1018.2C1134.26 1016.7 1136.86 1015.35 1139.26 1014.15C1141.76 1012.95 1143.81 1011.95 1145.41 1011.15C1147.11 1010.35 1147.96 1009.95 1147.96 1009.95C1147.06 1005.35 1146.31 1001.25 1145.71 997.65C1145.21 994.55 1144.71 991.7 1144.21 989.1C1143.81 986.5 1143.61 985.1 1143.61 984.9C1143.61 983.6 1143.86 982.65 1144.36 982.05C1144.96 981.35 1145.61 981 1146.31 981C1147.41 981 1148.11 981.75 1148.41 983.25C1149.51 988.65 1150.51 993.45 1151.41 997.65C1152.41 1001.85 1153.36 1005.25 1154.26 1007.85C1155.16 1007.65 1156.71 1007.1 1158.91 1006.2C1161.11 1005.2 1163.41 1004.15 1165.81 1003.05C1168.21 1001.95 1170.36 1001 1172.26 1000.2C1174.26 999.3 1175.41 998.85 1175.71 998.85C1176.31 998.85 1176.66 999.05 1176.76 999.45C1176.96 999.85 1177.16 1000.2 1177.36 1000.5Z" fill="#CDC4C0"/>
<path d="M1221.96 1052.55C1222.06 1052.75 1222.11 1053.05 1222.11 1053.45C1222.11 1054.05 1221.66 1054.95 1220.76 1056.15C1220.46 1056.55 1219.81 1057.2 1218.81 1058.1C1217.81 1059 1216.46 1059.9 1214.76 1060.8C1213.06 1061.7 1210.96 1062.5 1208.46 1063.2C1206.06 1063.9 1203.21 1064.25 1199.91 1064.25C1197.61 1064.25 1195.36 1063.75 1193.16 1062.75C1190.96 1061.65 1189.01 1060.1 1187.31 1058.1C1185.61 1056 1184.21 1053.45 1183.11 1050.45C1182.01 1047.35 1181.46 1043.75 1181.46 1039.65C1181.46 1035.75 1181.96 1032.1 1182.96 1028.7C1183.96 1025.3 1185.21 1022.3 1186.71 1019.7C1188.31 1017.1 1190.06 1015.05 1191.96 1013.55C1193.86 1012.05 1195.71 1011.3 1197.51 1011.3C1199.11 1011.3 1200.71 1011.65 1202.31 1012.35C1204.01 1012.95 1205.51 1013.75 1206.81 1014.75C1208.21 1015.75 1209.31 1016.9 1210.11 1018.2C1210.91 1019.4 1211.31 1020.65 1211.31 1021.95C1211.31 1023.45 1210.61 1025 1209.21 1026.6C1207.91 1028.2 1206.31 1029.7 1204.41 1031.1C1202.51 1032.4 1200.61 1033.5 1198.71 1034.4C1196.81 1035.2 1195.31 1035.6 1194.21 1035.6C1193.61 1035.6 1193.06 1035.35 1192.56 1034.85C1192.16 1034.25 1191.96 1033.55 1191.96 1032.75C1191.96 1031.35 1192.56 1030.25 1193.76 1029.45C1195.06 1028.65 1196.46 1027.95 1197.96 1027.35C1199.46 1026.65 1200.81 1025.85 1202.01 1024.95C1203.31 1024.05 1203.96 1022.8 1203.96 1021.2C1203.96 1021 1203.71 1020.5 1203.21 1019.7C1202.71 1018.9 1201.36 1018.5 1199.16 1018.5C1198.16 1018.5 1197.01 1019.1 1195.71 1020.3C1194.41 1021.4 1193.16 1022.95 1191.96 1024.95C1190.76 1026.85 1189.76 1029.15 1188.96 1031.85C1188.16 1034.45 1187.76 1037.3 1187.76 1040.4C1187.76 1043 1188.21 1045.35 1189.11 1047.45C1190.11 1049.55 1191.36 1051.35 1192.86 1052.85C1194.36 1054.25 1196.11 1055.35 1198.11 1056.15C1200.11 1056.95 1202.16 1057.35 1204.26 1057.35C1205.76 1057.35 1207.36 1057.05 1209.06 1056.45C1210.86 1055.75 1212.51 1055.05 1214.01 1054.35C1215.61 1053.55 1216.96 1052.85 1218.06 1052.25C1219.26 1051.55 1220.01 1051.2 1220.31 1051.2C1220.61 1051.2 1220.91 1051.35 1221.21 1051.65C1221.61 1051.95 1221.86 1052.25 1221.96 1052.55Z" fill="#CDC4C0"/>
<path d="M1293.91 1054.2C1293.91 1055 1293.66 1055.7 1293.16 1056.3C1292.66 1056.9 1292.06 1057.4 1291.36 1057.8C1290.66 1058.1 1289.91 1058.35 1289.11 1058.55C1288.41 1058.75 1287.81 1058.85 1287.31 1058.85C1285.21 1058.85 1283.41 1057.75 1281.91 1055.55C1280.41 1053.25 1279.16 1050.75 1278.16 1048.05C1277.16 1045.25 1276.41 1042.65 1275.91 1040.25C1275.51 1037.85 1275.31 1036.55 1275.31 1036.35C1274.71 1037.45 1274.06 1039.3 1273.36 1041.9C1272.76 1044.5 1272.01 1047.15 1271.11 1049.85C1270.21 1052.45 1269.06 1054.8 1267.66 1056.9C1266.36 1058.9 1264.66 1059.9 1262.56 1059.9C1261.56 1059.9 1260.61 1059.3 1259.71 1058.1C1258.81 1056.9 1257.96 1055.35 1257.16 1053.45C1256.36 1051.55 1255.56 1049.4 1254.76 1047C1254.06 1044.6 1253.31 1042.25 1252.51 1039.95C1251.81 1037.65 1251.11 1035.5 1250.41 1033.5C1249.71 1031.4 1249.01 1029.75 1248.31 1028.55C1247.71 1030.05 1247.16 1032.1 1246.66 1034.7C1246.26 1037.3 1245.91 1040.05 1245.61 1042.95C1245.31 1045.75 1245.06 1048.55 1244.86 1051.35C1244.66 1054.15 1244.56 1056.6 1244.56 1058.7C1244.56 1060.1 1244.16 1061.1 1243.36 1061.7C1242.66 1062.3 1241.91 1062.6 1241.11 1062.6C1240.01 1062.6 1238.91 1061.9 1237.81 1060.5C1236.71 1059 1235.61 1057.1 1234.51 1054.8C1233.41 1052.5 1232.36 1049.9 1231.36 1047C1230.46 1044.1 1229.61 1041.2 1228.81 1038.3C1228.11 1035.4 1227.56 1032.65 1227.16 1030.05C1226.76 1027.35 1226.56 1025.1 1226.56 1023.3C1226.56 1022 1226.61 1020.8 1226.71 1019.7C1226.81 1018.8 1226.86 1017.95 1226.86 1017.15C1226.96 1016.35 1227.01 1015.9 1227.01 1015.8C1227.01 1015.5 1226.91 1015.3 1226.71 1015.2C1226.61 1015.1 1226.56 1014.85 1226.56 1014.45C1226.56 1014.15 1226.91 1013.7 1227.61 1013.1C1228.41 1012.4 1229.21 1012.05 1230.01 1012.05C1231.41 1012.05 1232.31 1012.35 1232.71 1012.95C1233.21 1013.55 1233.46 1014.25 1233.46 1015.05C1233.46 1015.35 1233.41 1015.8 1233.31 1016.4C1233.31 1017 1233.31 1018.35 1233.31 1020.45C1233.31 1021.85 1233.56 1023.95 1234.06 1026.75C1234.56 1029.55 1235.16 1032.4 1235.86 1035.3C1236.56 1038.2 1237.26 1040.9 1237.96 1043.4C1238.76 1045.8 1239.41 1047.3 1239.91 1047.9C1240.11 1047.5 1240.21 1047.05 1240.21 1046.55C1240.31 1045.95 1240.41 1045.5 1240.51 1045.2L1242.16 1032.9C1242.56 1029.8 1243.36 1026.55 1244.56 1023.15C1245.86 1019.65 1247.21 1016.95 1248.61 1015.05C1249.11 1014.25 1249.66 1013.85 1250.26 1013.85C1250.86 1013.85 1251.41 1014.3 1251.91 1015.2C1253.61 1018 1254.86 1020.8 1255.66 1023.6C1256.56 1026.3 1257.31 1029 1257.91 1031.7C1258.61 1034.3 1259.36 1036.95 1260.16 1039.65C1261.06 1042.25 1262.41 1044.9 1264.21 1047.6C1265.01 1046.3 1266.01 1044.2 1267.21 1041.3C1268.41 1038.3 1269.61 1035.3 1270.81 1032.3C1272.11 1029.3 1273.31 1026.7 1274.41 1024.5C1275.51 1022.2 1276.36 1021.05 1276.96 1021.05C1277.26 1021.05 1277.76 1021.1 1278.46 1021.2C1279.16 1021.3 1279.66 1021.35 1279.96 1021.35C1280.86 1021.35 1281.61 1022.4 1282.21 1024.5C1282.81 1026.5 1283.31 1028.9 1283.71 1031.7C1284.21 1034.4 1284.66 1037.15 1285.06 1039.95C1285.56 1042.65 1286.11 1044.7 1286.71 1046.1C1287.11 1047.1 1287.71 1048.05 1288.51 1048.95C1289.31 1049.85 1290.11 1050.7 1290.91 1051.5C1291.91 1052.4 1292.91 1053.3 1293.91 1054.2Z" fill="#CDC4C0"/>
<path d="M1367.32 1054.2C1367.32 1055 1367.07 1055.7 1366.57 1056.3C1366.07 1056.9 1365.47 1057.4 1364.77 1057.8C1364.07 1058.1 1363.32 1058.35 1362.52 1058.55C1361.82 1058.75 1361.22 1058.85 1360.72 1058.85C1358.62 1058.85 1356.82 1057.75 1355.32 1055.55C1353.82 1053.25 1352.57 1050.75 1351.57 1048.05C1350.57 1045.25 1349.82 1042.65 1349.32 1040.25C1348.92 1037.85 1348.72 1036.55 1348.72 1036.35C1348.12 1037.45 1347.47 1039.3 1346.77 1041.9C1346.17 1044.5 1345.42 1047.15 1344.52 1049.85C1343.62 1052.45 1342.47 1054.8 1341.07 1056.9C1339.77 1058.9 1338.07 1059.9 1335.97 1059.9C1334.97 1059.9 1334.02 1059.3 1333.12 1058.1C1332.22 1056.9 1331.37 1055.35 1330.57 1053.45C1329.77 1051.55 1328.97 1049.4 1328.17 1047C1327.47 1044.6 1326.72 1042.25 1325.92 1039.95C1325.22 1037.65 1324.52 1035.5 1323.82 1033.5C1323.12 1031.4 1322.42 1029.75 1321.72 1028.55C1321.12 1030.05 1320.57 1032.1 1320.07 1034.7C1319.67 1037.3 1319.32 1040.05 1319.02 1042.95C1318.72 1045.75 1318.47 1048.55 1318.27 1051.35C1318.07 1054.15 1317.97 1056.6 1317.97 1058.7C1317.97 1060.1 1317.57 1061.1 1316.77 1061.7C1316.07 1062.3 1315.32 1062.6 1314.52 1062.6C1313.42 1062.6 1312.32 1061.9 1311.22 1060.5C1310.12 1059 1309.02 1057.1 1307.92 1054.8C1306.82 1052.5 1305.77 1049.9 1304.77 1047C1303.87 1044.1 1303.02 1041.2 1302.22 1038.3C1301.52 1035.4 1300.97 1032.65 1300.57 1030.05C1300.17 1027.35 1299.97 1025.1 1299.97 1023.3C1299.97 1022 1300.02 1020.8 1300.12 1019.7C1300.22 1018.8 1300.27 1017.95 1300.27 1017.15C1300.37 1016.35 1300.42 1015.9 1300.42 1015.8C1300.42 1015.5 1300.32 1015.3 1300.12 1015.2C1300.02 1015.1 1299.97 1014.85 1299.97 1014.45C1299.97 1014.15 1300.32 1013.7 1301.02 1013.1C1301.82 1012.4 1302.62 1012.05 1303.42 1012.05C1304.82 1012.05 1305.72 1012.35 1306.12 1012.95C1306.62 1013.55 1306.87 1014.25 1306.87 1015.05C1306.87 1015.35 1306.82 1015.8 1306.72 1016.4C1306.72 1017 1306.72 1018.35 1306.72 1020.45C1306.72 1021.85 1306.97 1023.95 1307.47 1026.75C1307.97 1029.55 1308.57 1032.4 1309.27 1035.3C1309.97 1038.2 1310.67 1040.9 1311.37 1043.4C1312.17 1045.8 1312.82 1047.3 1313.32 1047.9C1313.52 1047.5 1313.62 1047.05 1313.62 1046.55C1313.72 1045.95 1313.82 1045.5 1313.92 1045.2L1315.57 1032.9C1315.97 1029.8 1316.77 1026.55 1317.97 1023.15C1319.27 1019.65 1320.62 1016.95 1322.02 1015.05C1322.52 1014.25 1323.07 1013.85 1323.67 1013.85C1324.27 1013.85 1324.82 1014.3 1325.32 1015.2C1327.02 1018 1328.27 1020.8 1329.07 1023.6C1329.97 1026.3 1330.72 1029 1331.32 1031.7C1332.02 1034.3 1332.77 1036.95 1333.57 1039.65C1334.47 1042.25 1335.82 1044.9 1337.62 1047.6C1338.42 1046.3 1339.42 1044.2 1340.62 1041.3C1341.82 1038.3 1343.02 1035.3 1344.22 1032.3C1345.52 1029.3 1346.72 1026.7 1347.82 1024.5C1348.92 1022.2 1349.77 1021.05 1350.37 1021.05C1350.67 1021.05 1351.17 1021.1 1351.87 1021.2C1352.57 1021.3 1353.07 1021.35 1353.37 1021.35C1354.27 1021.35 1355.02 1022.4 1355.62 1024.5C1356.22 1026.5 1356.72 1028.9 1357.12 1031.7C1357.62 1034.4 1358.07 1037.15 1358.47 1039.95C1358.97 1042.65 1359.52 1044.7 1360.12 1046.1C1360.52 1047.1 1361.12 1048.05 1361.92 1048.95C1362.72 1049.85 1363.52 1050.7 1364.32 1051.5C1365.32 1052.4 1366.32 1053.3 1367.32 1054.2Z" fill="#CDC4C0"/>
<path d="M1415.83 1052.55C1415.93 1052.75 1415.98 1053.05 1415.98 1053.45C1415.98 1054.05 1415.53 1054.95 1414.63 1056.15C1414.33 1056.55 1413.68 1057.2 1412.68 1058.1C1411.68 1059 1410.33 1059.9 1408.63 1060.8C1406.93 1061.7 1404.83 1062.5 1402.33 1063.2C1399.93 1063.9 1397.08 1064.25 1393.78 1064.25C1391.48 1064.25 1389.23 1063.75 1387.03 1062.75C1384.83 1061.65 1382.88 1060.1 1381.18 1058.1C1379.48 1056 1378.08 1053.45 1376.98 1050.45C1375.88 1047.35 1375.33 1043.75 1375.33 1039.65C1375.33 1035.75 1375.83 1032.1 1376.83 1028.7C1377.83 1025.3 1379.08 1022.3 1380.58 1019.7C1382.18 1017.1 1383.93 1015.05 1385.83 1013.55C1387.73 1012.05 1389.58 1011.3 1391.38 1011.3C1392.98 1011.3 1394.58 1011.65 1396.18 1012.35C1397.88 1012.95 1399.38 1013.75 1400.68 1014.75C1402.08 1015.75 1403.18 1016.9 1403.98 1018.2C1404.78 1019.4 1405.18 1020.65 1405.18 1021.95C1405.18 1023.45 1404.48 1025 1403.08 1026.6C1401.78 1028.2 1400.18 1029.7 1398.28 1031.1C1396.38 1032.4 1394.48 1033.5 1392.58 1034.4C1390.68 1035.2 1389.18 1035.6 1388.08 1035.6C1387.48 1035.6 1386.93 1035.35 1386.43 1034.85C1386.03 1034.25 1385.83 1033.55 1385.83 1032.75C1385.83 1031.35 1386.43 1030.25 1387.63 1029.45C1388.93 1028.65 1390.33 1027.95 1391.83 1027.35C1393.33 1026.65 1394.68 1025.85 1395.88 1024.95C1397.18 1024.05 1397.83 1022.8 1397.83 1021.2C1397.83 1021 1397.58 1020.5 1397.08 1019.7C1396.58 1018.9 1395.23 1018.5 1393.03 1018.5C1392.03 1018.5 1390.88 1019.1 1389.58 1020.3C1388.28 1021.4 1387.03 1022.95 1385.83 1024.95C1384.63 1026.85 1383.63 1029.15 1382.83 1031.85C1382.03 1034.45 1381.63 1037.3 1381.63 1040.4C1381.63 1043 1382.08 1045.35 1382.98 1047.45C1383.98 1049.55 1385.23 1051.35 1386.73 1052.85C1388.23 1054.25 1389.98 1055.35 1391.98 1056.15C1393.98 1056.95 1396.03 1057.35 1398.13 1057.35C1399.63 1057.35 1401.23 1057.05 1402.93 1056.45C1404.73 1055.75 1406.38 1055.05 1407.88 1054.35C1409.48 1053.55 1410.83 1052.85 1411.93 1052.25C1413.13 1051.55 1413.88 1051.2 1414.18 1051.2C1414.48 1051.2 1414.78 1051.35 1415.08 1051.65C1415.48 1051.95 1415.73 1052.25 1415.83 1052.55Z" fill="#CDC4C0"/>
<path d="M1456.57 1022.55C1456.57 1023.25 1456.27 1023.85 1455.67 1024.35C1455.07 1024.75 1454.37 1025.1 1453.57 1025.4C1452.77 1025.7 1451.97 1025.95 1451.17 1026.15C1450.37 1026.25 1449.72 1026.3 1449.22 1026.3C1447.72 1026.3 1446.72 1026.2 1446.22 1026C1445.72 1025.8 1445.32 1025.7 1445.02 1025.7C1442.52 1025.7 1440.52 1025.9 1439.02 1026.3C1437.52 1026.7 1436.32 1027.35 1435.42 1028.25C1434.62 1029.15 1434.07 1030.3 1433.77 1031.7C1433.57 1033 1433.47 1034.6 1433.47 1036.5C1433.47 1039.7 1433.57 1042.25 1433.77 1044.15C1434.07 1046.05 1434.32 1047.6 1434.52 1048.8C1434.82 1050 1435.07 1050.95 1435.27 1051.65C1435.57 1052.25 1435.72 1052.85 1435.72 1053.45C1435.72 1054.25 1435.27 1055.1 1434.37 1056C1433.57 1056.9 1432.82 1057.35 1432.12 1057.35C1430.92 1057.35 1429.82 1056.3 1428.82 1054.2C1427.92 1052 1427.12 1049.45 1426.42 1046.55C1425.82 1043.55 1425.32 1040.6 1424.92 1037.7C1424.52 1034.8 1424.32 1032.6 1424.32 1031.1C1424.32 1029.4 1424.47 1027.8 1424.77 1026.3C1425.07 1024.7 1425.47 1023.35 1425.97 1022.25C1426.47 1021.05 1427.02 1020.1 1427.62 1019.4C1428.22 1018.7 1428.82 1018.35 1429.42 1018.35C1429.92 1018.35 1430.32 1018.55 1430.62 1018.95C1430.92 1019.25 1431.17 1019.65 1431.37 1020.15C1431.57 1020.55 1431.77 1020.95 1431.97 1021.35C1432.27 1021.65 1432.62 1021.8 1433.02 1021.8C1433.92 1021.8 1435.37 1021.35 1437.37 1020.45C1439.37 1019.55 1441.82 1019.1 1444.72 1019.1C1447.42 1019.1 1449.42 1019.2 1450.72 1019.4C1452.12 1019.5 1453.47 1019.8 1454.77 1020.3C1455.07 1020.4 1455.42 1020.65 1455.82 1021.05C1456.32 1021.35 1456.57 1021.85 1456.57 1022.55Z" fill="#CDC4C0"/>
<path d="M1129.4 1036.4C1129.4 1043 1128.22 1048.21 1125.88 1052.02C1123.53 1055.69 1120.08 1059.13 1115.54 1062.36C1114.36 1063.09 1112.75 1063.97 1110.7 1065C1108.64 1066.03 1106.37 1066.98 1103.88 1067.86C1101.38 1068.74 1098.74 1069.47 1095.96 1070.06C1093.17 1070.65 1090.6 1070.94 1088.26 1070.94C1081.66 1070.94 1076.67 1070.21 1073.3 1068.74C1069.92 1067.42 1068.24 1065.81 1068.24 1063.9C1068.24 1061.85 1068.82 1060.16 1070 1058.84C1071.17 1057.52 1072.2 1056.79 1073.08 1056.64L1075.5 1058.4C1076.23 1059.13 1077.26 1059.94 1078.58 1060.82C1079.9 1061.55 1082.02 1061.92 1084.96 1061.92C1087.74 1061.92 1091.12 1061.48 1095.08 1060.6C1099.04 1059.57 1102.78 1058.11 1106.3 1056.2C1109.96 1054.15 1113.04 1051.65 1115.54 1048.72C1118.18 1045.79 1119.5 1042.41 1119.5 1038.6C1119.5 1035.23 1116.93 1032.15 1111.8 1029.36C1106.81 1026.43 1098.89 1024.45 1088.04 1023.42C1082.46 1022.98 1076.96 1022.32 1071.54 1021.44C1066.11 1020.41 1061.2 1019.09 1056.8 1017.48C1052.54 1015.72 1049.1 1013.59 1046.46 1011.1C1043.82 1008.46 1042.5 1005.23 1042.5 1001.42C1042.5 997.753 1043.52 994.233 1045.58 990.86C1047.63 987.487 1050.12 984.407 1053.06 981.62C1056.14 978.687 1059.29 976.12 1062.52 973.92C1065.74 971.72 1068.46 969.887 1070.66 968.42C1072.42 967.393 1074.84 966.073 1077.92 964.46C1081.14 962.7 1084.52 961.087 1088.04 959.62C1091.7 958.007 1095.3 956.687 1098.82 955.66C1102.48 954.487 1105.56 953.9 1108.06 953.9C1110.99 953.9 1112.97 954.707 1114 956.32C1115.02 957.933 1115.54 960.207 1115.54 963.14C1115.54 965.633 1115.24 968.273 1114.66 971.06C1114.07 973.847 1113.41 976.56 1112.68 979.2C1111.94 981.84 1111.21 984.187 1110.48 986.24C1109.89 988.147 1109.45 989.393 1109.16 989.98C1108.57 991.3 1107.91 992.18 1107.18 992.62C1106.44 993.06 1105.93 993.28 1105.64 993.28C1105.05 993.28 1104.76 992.913 1104.76 992.18C1104.76 991.74 1104.83 990.933 1104.98 989.76C1105.27 988.44 1105.56 986.9 1105.86 985.14C1106.3 983.38 1106.59 981.473 1106.74 979.42C1107.03 977.367 1107.18 975.313 1107.18 973.26C1107.18 970.033 1107.03 967.687 1106.74 966.22C1106.44 964.753 1105.27 964.02 1103.22 964.02C1101.16 964.02 1098.38 964.607 1094.86 965.78C1091.34 966.807 1087.74 968.127 1084.08 969.74C1080.12 971.5 1076.23 973.773 1072.42 976.56C1068.75 979.347 1065.45 982.207 1062.52 985.14C1059.58 988.073 1057.16 990.933 1055.26 993.72C1053.5 996.36 1052.62 998.487 1052.62 1000.1C1052.62 1001.86 1053.79 1003.55 1056.14 1005.16C1058.63 1006.63 1061.71 1007.95 1065.38 1009.12C1069.19 1010.29 1073.37 1011.32 1077.92 1012.2C1082.46 1013.08 1086.94 1013.74 1091.34 1014.18C1095 1014.62 1099.04 1015.21 1103.44 1015.94C1107.84 1016.67 1111.94 1017.85 1115.76 1019.46C1119.57 1021.07 1122.8 1023.27 1125.44 1026.06C1128.08 1028.7 1129.4 1032.15 1129.4 1036.4Z" stroke="black" stroke-width="20" mask="url(#path-17-outside-1_12_58)"/>
<path d="M1177.36 1000.5C1176.06 1002 1174.21 1003.5 1171.81 1005C1169.41 1006.4 1167.01 1007.7 1164.61 1008.9C1162.21 1010.1 1160.11 1011.15 1158.31 1012.05C1156.51 1012.85 1155.61 1013.4 1155.61 1013.7C1155.61 1014 1155.81 1014.9 1156.21 1016.4C1156.61 1017.9 1157.06 1019.7 1157.56 1021.8C1158.16 1023.8 1158.76 1025.9 1159.36 1028.1C1159.96 1030.3 1160.46 1032.25 1160.86 1033.95C1161.06 1034.95 1161.31 1036.25 1161.61 1037.85C1161.91 1039.45 1162.16 1041.05 1162.36 1042.65C1162.66 1044.25 1162.91 1045.7 1163.11 1047C1163.31 1048.2 1163.41 1048.85 1163.41 1048.95C1163.41 1050.45 1163.16 1052 1162.66 1053.6C1162.16 1055.2 1161.36 1056 1160.26 1056C1159.66 1056 1159.11 1055.75 1158.61 1055.25C1158.11 1054.75 1157.66 1054.2 1157.26 1053.6C1156.86 1052.9 1156.56 1052.25 1156.36 1051.65C1156.16 1051.05 1156.06 1050.6 1156.06 1050.3C1156.06 1050.1 1156.06 1049.8 1156.06 1049.4C1156.16 1049 1156.21 1048.55 1156.21 1048.05C1156.21 1046.15 1155.91 1043.4 1155.31 1039.8C1155.11 1038.7 1154.71 1037 1154.11 1034.7C1153.51 1032.4 1152.91 1030.05 1152.31 1027.65C1151.61 1024.85 1150.81 1021.8 1149.91 1018.5C1149.51 1017.1 1149.26 1016.4 1149.16 1016.4C1148.46 1016.4 1147.26 1016.85 1145.56 1017.75C1143.96 1018.55 1142.11 1019.6 1140.01 1020.9C1137.91 1022.1 1135.71 1023.45 1133.41 1024.95C1131.11 1026.35 1128.96 1027.7 1126.96 1029C1124.96 1030.2 1123.26 1031.25 1121.86 1032.15C1120.36 1032.95 1119.46 1033.35 1119.16 1033.35C1117.86 1033.35 1116.81 1032.9 1116.01 1032C1115.21 1031.1 1114.81 1030.1 1114.81 1029C1114.81 1028.4 1115.66 1027.55 1117.36 1026.45C1118.96 1025.25 1121.01 1023.95 1123.51 1022.55C1125.91 1021.15 1128.56 1019.7 1131.46 1018.2C1134.26 1016.7 1136.86 1015.35 1139.26 1014.15C1141.76 1012.95 1143.81 1011.95 1145.41 1011.15C1147.11 1010.35 1147.96 1009.95 1147.96 1009.95C1147.06 1005.35 1146.31 1001.25 1145.71 997.65C1145.21 994.55 1144.71 991.7 1144.21 989.1C1143.81 986.5 1143.61 985.1 1143.61 984.9C1143.61 983.6 1143.86 982.65 1144.36 982.05C1144.96 981.35 1145.61 981 1146.31 981C1147.41 981 1148.11 981.75 1148.41 983.25C1149.51 988.65 1150.51 993.45 1151.41 997.65C1152.41 1001.85 1153.36 1005.25 1154.26 1007.85C1155.16 1007.65 1156.71 1007.1 1158.91 1006.2C1161.11 1005.2 1163.41 1004.15 1165.81 1003.05C1168.21 1001.95 1170.36 1001 1172.26 1000.2C1174.26 999.3 1175.41 998.85 1175.71 998.85C1176.31 998.85 1176.66 999.05 1176.76 999.45C1176.96 999.85 1177.16 1000.2 1177.36 1000.5Z" stroke="black" stroke-width="20" mask="url(#path-17-outside-1_12_58)"/>
<path d="M1221.96 1052.55C1222.06 1052.75 1222.11 1053.05 1222.11 1053.45C1222.11 1054.05 1221.66 1054.95 1220.76 1056.15C1220.46 1056.55 1219.81 1057.2 1218.81 1058.1C1217.81 1059 1216.46 1059.9 1214.76 1060.8C1213.06 1061.7 1210.96 1062.5 1208.46 1063.2C1206.06 1063.9 1203.21 1064.25 1199.91 1064.25C1197.61 1064.25 1195.36 1063.75 1193.16 1062.75C1190.96 1061.65 1189.01 1060.1 1187.31 1058.1C1185.61 1056 1184.21 1053.45 1183.11 1050.45C1182.01 1047.35 1181.46 1043.75 1181.46 1039.65C1181.46 1035.75 1181.96 1032.1 1182.96 1028.7C1183.96 1025.3 1185.21 1022.3 1186.71 1019.7C1188.31 1017.1 1190.06 1015.05 1191.96 1013.55C1193.86 1012.05 1195.71 1011.3 1197.51 1011.3C1199.11 1011.3 1200.71 1011.65 1202.31 1012.35C1204.01 1012.95 1205.51 1013.75 1206.81 1014.75C1208.21 1015.75 1209.31 1016.9 1210.11 1018.2C1210.91 1019.4 1211.31 1020.65 1211.31 1021.95C1211.31 1023.45 1210.61 1025 1209.21 1026.6C1207.91 1028.2 1206.31 1029.7 1204.41 1031.1C1202.51 1032.4 1200.61 1033.5 1198.71 1034.4C1196.81 1035.2 1195.31 1035.6 1194.21 1035.6C1193.61 1035.6 1193.06 1035.35 1192.56 1034.85C1192.16 1034.25 1191.96 1033.55 1191.96 1032.75C1191.96 1031.35 1192.56 1030.25 1193.76 1029.45C1195.06 1028.65 1196.46 1027.95 1197.96 1027.35C1199.46 1026.65 1200.81 1025.85 1202.01 1024.95C1203.31 1024.05 1203.96 1022.8 1203.96 1021.2C1203.96 1021 1203.71 1020.5 1203.21 1019.7C1202.71 1018.9 1201.36 1018.5 1199.16 1018.5C1198.16 1018.5 1197.01 1019.1 1195.71 1020.3C1194.41 1021.4 1193.16 1022.95 1191.96 1024.95C1190.76 1026.85 1189.76 1029.15 1188.96 1031.85C1188.16 1034.45 1187.76 1037.3 1187.76 1040.4C1187.76 1043 1188.21 1045.35 1189.11 1047.45C1190.11 1049.55 1191.36 1051.35 1192.86 1052.85C1194.36 1054.25 1196.11 1055.35 1198.11 1056.15C1200.11 1056.95 1202.16 1057.35 1204.26 1057.35C1205.76 1057.35 1207.36 1057.05 1209.06 1056.45C1210.86 1055.75 1212.51 1055.05 1214.01 1054.35C1215.61 1053.55 1216.96 1052.85 1218.06 1052.25C1219.26 1051.55 1220.01 1051.2 1220.31 1051.2C1220.61 1051.2 1220.91 1051.35 1221.21 1051.65C1221.61 1051.95 1221.86 1052.25 1221.96 1052.55Z" stroke="black" stroke-width="20" mask="url(#path-17-outside-1_12_58)"/>
<path d="M1293.91 1054.2C1293.91 1055 1293.66 1055.7 1293.16 1056.3C1292.66 1056.9 1292.06 1057.4 1291.36 1057.8C1290.66 1058.1 1289.91 1058.35 1289.11 1058.55C1288.41 1058.75 1287.81 1058.85 1287.31 1058.85C1285.21 1058.85 1283.41 1057.75 1281.91 1055.55C1280.41 1053.25 1279.16 1050.75 1278.16 1048.05C1277.16 1045.25 1276.41 1042.65 1275.91 1040.25C1275.51 1037.85 1275.31 1036.55 1275.31 1036.35C1274.71 1037.45 1274.06 1039.3 1273.36 1041.9C1272.76 1044.5 1272.01 1047.15 1271.11 1049.85C1270.21 1052.45 1269.06 1054.8 1267.66 1056.9C1266.36 1058.9 1264.66 1059.9 1262.56 1059.9C1261.56 1059.9 1260.61 1059.3 1259.71 1058.1C1258.81 1056.9 1257.96 1055.35 1257.16 1053.45C1256.36 1051.55 1255.56 1049.4 1254.76 1047C1254.06 1044.6 1253.31 1042.25 1252.51 1039.95C1251.81 1037.65 1251.11 1035.5 1250.41 1033.5C1249.71 1031.4 1249.01 1029.75 1248.31 1028.55C1247.71 1030.05 1247.16 1032.1 1246.66 1034.7C1246.26 1037.3 1245.91 1040.05 1245.61 1042.95C1245.31 1045.75 1245.06 1048.55 1244.86 1051.35C1244.66 1054.15 1244.56 1056.6 1244.56 1058.7C1244.56 1060.1 1244.16 1061.1 1243.36 1061.7C1242.66 1062.3 1241.91 1062.6 1241.11 1062.6C1240.01 1062.6 1238.91 1061.9 1237.81 1060.5C1236.71 1059 1235.61 1057.1 1234.51 1054.8C1233.41 1052.5 1232.36 1049.9 1231.36 1047C1230.46 1044.1 1229.61 1041.2 1228.81 1038.3C1228.11 1035.4 1227.56 1032.65 1227.16 1030.05C1226.76 1027.35 1226.56 1025.1 1226.56 1023.3C1226.56 1022 1226.61 1020.8 1226.71 1019.7C1226.81 1018.8 1226.86 1017.95 1226.86 1017.15C1226.96 1016.35 1227.01 1015.9 1227.01 1015.8C1227.01 1015.5 1226.91 1015.3 1226.71 1015.2C1226.61 1015.1 1226.56 1014.85 1226.56 1014.45C1226.56 1014.15 1226.91 1013.7 1227.61 1013.1C1228.41 1012.4 1229.21 1012.05 1230.01 1012.05C1231.41 1012.05 1232.31 1012.35 1232.71 1012.95C1233.21 1013.55 1233.46 1014.25 1233.46 1015.05C1233.46 1015.35 1233.41 1015.8 1233.31 1016.4C1233.31 1017 1233.31 1018.35 1233.31 1020.45C1233.31 1021.85 1233.56 1023.95 1234.06 1026.75C1234.56 1029.55 1235.16 1032.4 1235.86 1035.3C1236.56 1038.2 1237.26 1040.9 1237.96 1043.4C1238.76 1045.8 1239.41 1047.3 1239.91 1047.9C1240.11 1047.5 1240.21 1047.05 1240.21 1046.55C1240.31 1045.95 1240.41 1045.5 1240.51 1045.2L1242.16 1032.9C1242.56 1029.8 1243.36 1026.55 1244.56 1023.15C1245.86 1019.65 1247.21 1016.95 1248.61 1015.05C1249.11 1014.25 1249.66 1013.85 1250.26 1013.85C1250.86 1013.85 1251.41 1014.3 1251.91 1015.2C1253.61 1018 1254.86 1020.8 1255.66 1023.6C1256.56 1026.3 1257.31 1029 1257.91 1031.7C1258.61 1034.3 1259.36 1036.95 1260.16 1039.65C1261.06 1042.25 1262.41 1044.9 1264.21 1047.6C1265.01 1046.3 1266.01 1044.2 1267.21 1041.3C1268.41 1038.3 1269.61 1035.3 1270.81 1032.3C1272.11 1029.3 1273.31 1026.7 1274.41 1024.5C1275.51 1022.2 1276.36 1021.05 1276.96 1021.05C1277.26 1021.05 1277.76 1021.1 1278.46 1021.2C1279.16 1021.3 1279.66 1021.35 1279.96 1021.35C1280.86 1021.35 1281.61 1022.4 1282.21 1024.5C1282.81 1026.5 1283.31 1028.9 1283.71 1031.7C1284.21 1034.4 1284.66 1037.15 1285.06 1039.95C1285.56 1042.65 1286.11 1044.7 1286.71 1046.1C1287.11 1047.1 1287.71 1048.05 1288.51 1048.95C1289.31 1049.85 1290.11 1050.7 1290.91 1051.5C1291.91 1052.4 1292.91 1053.3 1293.91 1054.2Z" stroke="black" stroke-width="20" mask="url(#path-17-outside-1_12_58)"/>
<path d="M1367.32 1054.2C1367.32 1055 1367.07 1055.7 1366.57 1056.3C1366.07 1056.9 1365.47 1057.4 1364.77 1057.8C1364.07 1058.1 1363.32 1058.35 1362.52 1058.55C1361.82 1058.75 1361.22 1058.85 1360.72 1058.85C1358.62 1058.85 1356.82 1057.75 1355.32 1055.55C1353.82 1053.25 1352.57 1050.75 1351.57 1048.05C1350.57 1045.25 1349.82 1042.65 1349.32 1040.25C1348.92 1037.85 1348.72 1036.55 1348.72 1036.35C1348.12 1037.45 1347.47 1039.3 1346.77 1041.9C1346.17 1044.5 1345.42 1047.15 1344.52 1049.85C1343.62 1052.45 1342.47 1054.8 1341.07 1056.9C1339.77 1058.9 1338.07 1059.9 1335.97 1059.9C1334.97 1059.9 1334.02 1059.3 1333.12 1058.1C1332.22 1056.9 1331.37 1055.35 1330.57 1053.45C1329.77 1051.55 1328.97 1049.4 1328.17 1047C1327.47 1044.6 1326.72 1042.25 1325.92 1039.95C1325.22 1037.65 1324.52 1035.5 1323.82 1033.5C1323.12 1031.4 1322.42 1029.75 1321.72 1028.55C1321.12 1030.05 1320.57 1032.1 1320.07 1034.7C1319.67 1037.3 1319.32 1040.05 1319.02 1042.95C1318.72 1045.75 1318.47 1048.55 1318.27 1051.35C1318.07 1054.15 1317.97 1056.6 1317.97 1058.7C1317.97 1060.1 1317.57 1061.1 1316.77 1061.7C1316.07 1062.3 1315.32 1062.6 1314.52 1062.6C1313.42 1062.6 1312.32 1061.9 1311.22 1060.5C1310.12 1059 1309.02 1057.1 1307.92 1054.8C1306.82 1052.5 1305.77 1049.9 1304.77 1047C1303.87 1044.1 1303.02 1041.2 1302.22 1038.3C1301.52 1035.4 1300.97 1032.65 1300.57 1030.05C1300.17 1027.35 1299.97 1025.1 1299.97 1023.3C1299.97 1022 1300.02 1020.8 1300.12 1019.7C1300.22 1018.8 1300.27 1017.95 1300.27 1017.15C1300.37 1016.35 1300.42 1015.9 1300.42 1015.8C1300.42 1015.5 1300.32 1015.3 1300.12 1015.2C1300.02 1015.1 1299.97 1014.85 1299.97 1014.45C1299.97 1014.15 1300.32 1013.7 1301.02 1013.1C1301.82 1012.4 1302.62 1012.05 1303.42 1012.05C1304.82 1012.05 1305.72 1012.35 1306.12 1012.95C1306.62 1013.55 1306.87 1014.25 1306.87 1015.05C1306.87 1015.35 1306.82 1015.8 1306.72 1016.4C1306.72 1017 1306.72 1018.35 1306.72 1020.45C1306.72 1021.85 1306.97 1023.95 1307.47 1026.75C1307.97 1029.55 1308.57 1032.4 1309.27 1035.3C1309.97 1038.2 1310.67 1040.9 1311.37 1043.4C1312.17 1045.8 1312.82 1047.3 1313.32 1047.9C1313.52 1047.5 1313.62 1047.05 1313.62 1046.55C1313.72 1045.95 1313.82 1045.5 1313.92 1045.2L1315.57 1032.9C1315.97 1029.8 1316.77 1026.55 1317.97 1023.15C1319.27 1019.65 1320.62 1016.95 1322.02 1015.05C1322.52 1014.25 1323.07 1013.85 1323.67 1013.85C1324.27 1013.85 1324.82 1014.3 1325.32 1015.2C1327.02 1018 1328.27 1020.8 1329.07 1023.6C1329.97 1026.3 1330.72 1029 1331.32 1031.7C1332.02 1034.3 1332.77 1036.95 1333.57 1039.65C1334.47 1042.25 1335.82 1044.9 1337.62 1047.6C1338.42 1046.3 1339.42 1044.2 1340.62 1041.3C1341.82 1038.3 1343.02 1035.3 1344.22 1032.3C1345.52 1029.3 1346.72 1026.7 1347.82 1024.5C1348.92 1022.2 1349.77 1021.05 1350.37 1021.05C1350.67 1021.05 1351.17 1021.1 1351.87 1021.2C1352.57 1021.3 1353.07 1021.35 1353.37 1021.35C1354.27 1021.35 1355.02 1022.4 1355.62 1024.5C1356.22 1026.5 1356.72 1028.9 1357.12 1031.7C1357.62 1034.4 1358.07 1037.15 1358.47 1039.95C1358.97 1042.65 1359.52 1044.7 1360.12 1046.1C1360.52 1047.1 1361.12 1048.05 1361.92 1048.95C1362.72 1049.85 1363.52 1050.7 1364.32 1051.5C1365.32 1052.4 1366.32 1053.3 1367.32 1054.2Z" stroke="black" stroke-width="20" mask="url(#path-17-outside-1_12_58)"/>
<path d="M1415.83 1052.55C1415.93 1052.75 1415.98 1053.05 1415.98 1053.45C1415.98 1054.05 1415.53 1054.95 1414.63 1056.15C1414.33 1056.55 1413.68 1057.2 1412.68 1058.1C1411.68 1059 1410.33 1059.9 1408.63 1060.8C1406.93 1061.7 1404.83 1062.5 1402.33 1063.2C1399.93 1063.9 1397.08 1064.25 1393.78 1064.25C1391.48 1064.25 1389.23 1063.75 1387.03 1062.75C1384.83 1061.65 1382.88 1060.1 1381.18 1058.1C1379.48 1056 1378.08 1053.45 1376.98 1050.45C1375.88 1047.35 1375.33 1043.75 1375.33 1039.65C1375.33 1035.75 1375.83 1032.1 1376.83 1028.7C1377.83 1025.3 1379.08 1022.3 1380.58 1019.7C1382.18 1017.1 1383.93 1015.05 1385.83 1013.55C1387.73 1012.05 1389.58 1011.3 1391.38 1011.3C1392.98 1011.3 1394.58 1011.65 1396.18 1012.35C1397.88 1012.95 1399.38 1013.75 1400.68 1014.75C1402.08 1015.75 1403.18 1016.9 1403.98 1018.2C1404.78 1019.4 1405.18 1020.65 1405.18 1021.95C1405.18 1023.45 1404.48 1025 1403.08 1026.6C1401.78 1028.2 1400.18 1029.7 1398.28 1031.1C1396.38 1032.4 1394.48 1033.5 1392.58 1034.4C1390.68 1035.2 1389.18 1035.6 1388.08 1035.6C1387.48 1035.6 1386.93 1035.35 1386.43 1034.85C1386.03 1034.25 1385.83 1033.55 1385.83 1032.75C1385.83 1031.35 1386.43 1030.25 1387.63 1029.45C1388.93 1028.65 1390.33 1027.95 1391.83 1027.35C1393.33 1026.65 1394.68 1025.85 1395.88 1024.95C1397.18 1024.05 1397.83 1022.8 1397.83 1021.2C1397.83 1021 1397.58 1020.5 1397.08 1019.7C1396.58 1018.9 1395.23 1018.5 1393.03 1018.5C1392.03 1018.5 1390.88 1019.1 1389.58 1020.3C1388.28 1021.4 1387.03 1022.95 1385.83 1024.95C1384.63 1026.85 1383.63 1029.15 1382.83 1031.85C1382.03 1034.45 1381.63 1037.3 1381.63 1040.4C1381.63 1043 1382.08 1045.35 1382.98 1047.45C1383.98 1049.55 1385.23 1051.35 1386.73 1052.85C1388.23 1054.25 1389.98 1055.35 1391.98 1056.15C1393.98 1056.95 1396.03 1057.35 1398.13 1057.35C1399.63 1057.35 1401.23 1057.05 1402.93 1056.45C1404.73 1055.75 1406.38 1055.05 1407.88 1054.35C1409.48 1053.55 1410.83 1052.85 1411.93 1052.25C1413.13 1051.55 1413.88 1051.2 1414.18 1051.2C1414.48 1051.2 1414.78 1051.35 1415.08 1051.65C1415.48 1051.95 1415.73 1052.25 1415.83 1052.55Z" stroke="black" stroke-width="20" mask="url(#path-17-outside-1_12_58)"/>
<path d="M1456.57 1022.55C1456.57 1023.25 1456.27 1023.85 1455.67 1024.35C1455.07 1024.75 1454.37 1025.1 1453.57 1025.4C1452.77 1025.7 1451.97 1025.95 1451.17 1026.15C1450.37 1026.25 1449.72 1026.3 1449.22 1026.3C1447.72 1026.3 1446.72 1026.2 1446.22 1026C1445.72 1025.8 1445.32 1025.7 1445.02 1025.7C1442.52 1025.7 1440.52 1025.9 1439.02 1026.3C1437.52 1026.7 1436.32 1027.35 1435.42 1028.25C1434.62 1029.15 1434.07 1030.3 1433.77 1031.7C1433.57 1033 1433.47 1034.6 1433.47 1036.5C1433.47 1039.7 1433.57 1042.25 1433.77 1044.15C1434.07 1046.05 1434.32 1047.6 1434.52 1048.8C1434.82 1050 1435.07 1050.95 1435.27 1051.65C1435.57 1052.25 1435.72 1052.85 1435.72 1053.45C1435.72 1054.25 1435.27 1055.1 1434.37 1056C1433.57 1056.9 1432.82 1057.35 1432.12 1057.35C1430.92 1057.35 1429.82 1056.3 1428.82 1054.2C1427.92 1052 1427.12 1049.45 1426.42 1046.55C1425.82 1043.55 1425.32 1040.6 1424.92 1037.7C1424.52 1034.8 1424.32 1032.6 1424.32 1031.1C1424.32 1029.4 1424.47 1027.8 1424.77 1026.3C1425.07 1024.7 1425.47 1023.35 1425.97 1022.25C1426.47 1021.05 1427.02 1020.1 1427.62 1019.4C1428.22 1018.7 1428.82 1018.35 1429.42 1018.35C1429.92 1018.35 1430.32 1018.55 1430.62 1018.95C1430.92 1019.25 1431.17 1019.65 1431.37 1020.15C1431.57 1020.55 1431.77 1020.95 1431.97 1021.35C1432.27 1021.65 1432.62 1021.8 1433.02 1021.8C1433.92 1021.8 1435.37 1021.35 1437.37 1020.45C1439.37 1019.55 1441.82 1019.1 1444.72 1019.1C1447.42 1019.1 1449.42 1019.2 1450.72 1019.4C1452.12 1019.5 1453.47 1019.8 1454.77 1020.3C1455.07 1020.4 1455.42 1020.65 1455.82 1021.05C1456.32 1021.35 1456.57 1021.85 1456.57 1022.55Z" stroke="black" stroke-width="20" mask="url(#path-17-outside-1_12_58)"/>
</svg>
